<?xml version="1.0" encoding="UTF-8"?>
<svg id="Layer_1" xmlns="http://www.w3.org/2000/svg" version="1.1" viewBox="0 0 432 432">
  <!-- Generator: Adobe Illustrator 30.2.1, SVG Export Plug-In . SVG Version: 2.1.1 Build 1)  -->
  <defs>
    <style>
      .st0 {
        fill: #f7d4a7;
      }

      .st1 {
        fill: #6fba84;
      }
    </style>
  </defs>
  <g id="colour">
    <path class="st1" d="M229.32,178.25c-.93,2.51-2.1,4.89-3.47,7.19l3.42-.9c-.7-.36-.9-1.04-1.1-1.79-.36-1.32-.56-2.69-.8-4.04-.53-2.99-.98-5.99-1.34-9-.73-6.15-1.11-12.33-1.16-18.52l-4.27,1.77c2.91,2.46,3.96,6.13,4.77,9.72,1.07,4.74,1.93,9.54,2.73,14.33s1.56,9.83,2.26,14.76c.34,2.42.68,4.85,1.02,7.27.18,1.27.88,3.6-.21,4.49h3.54c-2.41-2.43-3.71-5.6-4.7-8.82-1.19-3.85-2.12-7.78-2.95-11.72-1.73-8.2-2.9-16.51-4.02-24.81-.61-4.48-1.42-9.14-.23-13.58h-4.82c7.21,17.22,10.81,35.78,10.49,54.45l3.76-2.16c-2.96-2.05-4.14-5.9-5.2-9.15-1.45-4.48-2.77-9.01-3.98-13.56s-2.33-9.13-3.39-13.72c-.52-2.28-1.1-4.56-1.49-6.86-.31-1.84-.48-3.95.28-5.7h-4.32c3.68,8.56,6.4,17.56,8.18,26.7.87,4.47,1.5,8.97,1.89,13.51.2,2.3.33,4.61.41,6.91.04,1.09.2,2.29.03,3.37.04-.28-.15.81-.14.53-.16.28-.19.33-.09.16.97-.25,1.16-.38.59-.39l2.16,1.24c-7.79-14.34-13.36-29.78-16.6-45.78-.27-1.32-1.84-2.09-3.08-1.75-1.38.38-2.02,1.75-1.75,3.08,2.99,14.76,7.98,29.11,14.78,42.55.74,1.46,1.42,3.06,2.32,4.43,1.26,1.89,3.9,1.45,5.29-.03,2.37-2.53,1.53-7.05,1.37-10.17-.41-7.6-1.45-15.17-3.11-22.6-1.86-8.34-4.56-16.44-7.93-24.28-.71-1.64-3.61-1.63-4.32,0-1.64,3.77-1.25,7.57-.41,11.5s1.77,7.88,2.74,11.8c1.9,7.73,3.88,15.57,6.64,23.05,1.38,3.75,3.24,7.18,6.6,9.5,1.62,1.12,3.73-.38,3.76-2.16.33-19.07-3.3-38.18-10.67-55.78-.43-1.04-1.21-1.84-2.41-1.84-1.09,0-2.13.78-2.41,1.84-1.17,4.36-.77,8.8-.18,13.22s1.18,8.82,1.85,13.23c1.31,8.73,2.87,17.48,5.42,25.95,1.26,4.18,2.98,8.27,6.1,11.41,1.02,1.03,2.49.85,3.54,0,3.1-2.53,1.79-7.22,1.33-10.57-.58-4.2-1.17-8.41-1.8-12.6-1.23-8.13-2.38-16.43-4.48-24.39-.99-3.75-2.58-7.52-5.61-10.08-1.59-1.34-4.29-.53-4.27,1.77.06,6.84.52,13.67,1.41,20.46.44,3.37.96,6.73,1.59,10.07.51,2.73,1.2,5.75,3.9,7.13,1.21.62,2.7.31,3.42-.9,1.59-2.66,2.9-5.47,3.98-8.38.47-1.27-.52-2.74-1.75-3.08-1.4-.38-2.61.47-3.08,1.75h0l-.03-.03Z"/>
    <path class="st1" d="M213.69,173.76h-.18c.42.12.84.23,1.26.34l-.13-.07.9.9-.55,2.35-1.26.34c-.42.03-.94-.85-1.07-.43-.05.17.17.65.22.83.17.68.33,1.37.48,2.06.3,1.38.57,2.76.81,4.15.47,2.79.76,5.61.91,8.44.3,5.64.02,11.32-.89,16.9l4.57-.6c-7.29-15.58-8.63-33.69-3.93-50.21l-4.18,1.1c5.17,4.52,5.99,12.29,7,18.67,1.31,8.31,1.98,16.72,2.05,25.13.04,4.76-.11,9.52-.45,14.27l3.76-2.16c-2.51-1.6-3.55-4.6-4.24-7.36-.99-3.94-1.57-8.02-2.13-12.04-1.18-8.43-1.73-16.96-1.74-25.47,0-4.94.19-9.87.57-14.79l-4.91.66c5.04,18.8,7.83,38.15,8.25,57.61.12,5.6.04,11.2-.22,16.79l3.76-2.16c-1.37-.6-1.83-1.82-2.19-3.25-.54-2.14-.77-4.38-1.09-6.56-.75-5.07-1.43-10.15-2.05-15.23-1.24-10.13-2.23-20.28-2.99-30.45-.43-5.82-.79-11.65-1.06-17.49l-4.91.66c3.87,21.12,5.84,42.58,5.89,64.05.02,6.09-.13,12.19-.41,18.27l4.91-.66c-4.66-19.32-8.35-38.88-11-58.58-.75-5.59-1.41-11.19-2-16.81l-4.91.66c4.91,22.05,8.45,44.39,10.53,66.89.59,6.39,1.06,12.78,1.42,19.18l4.91-.66c-3.55-20.27-7.1-40.54-10.65-60.81l-3.01-17.16c-.23-1.33-1.86-2.08-3.08-1.75-1.42.39-1.96,1.74-1.75,3.08,3.19,19.7,5.13,39.59,5.87,59.53l4.66-1.26c-6.38-13.67-10.38-28.47-11.76-43.49l-4.66,1.26c7.05,14.74,11.71,30.68,13.66,46.9l4.66-1.26c-7.23-14.57-12.41-30.1-15.48-46.07l-4.57,1.93c5.76,13.47,8.51,28.15,8.2,42.79l4.66-1.26c-3.79-8.91-7.58-17.82-11.37-26.74-.48-1.13-2.11-1.47-3.12-1.02-1.13.5-1.78,1.72-1.45,2.95,2.66,9.86,5.05,19.78,7.16,29.77l4.57-1.93-8.15-13.42-4.32,2.52c4.4,5.77,7.89,12.18,10.24,19.05l4.57-1.93c-3.19-4.18-5.83-8.72-7.88-13.55l-4.32,2.52c2.11,4.6,3.61,9.45,4.58,14.42l4.57-1.93c-3.61-5.42-6.75-11.14-9.39-17.09l-4.32,2.52c2.8,5.25,4.62,10.91,5.5,16.78l4.57-1.93c-3.15-4.63-5.81-9.59-7.84-14.81l-4.57,1.93c2.53,3.88,4.39,8.06,5.56,12.55l4.18-2.43c-3.31-3.25-5.33-7.37-6-11.95l-3.67,2.82c1.39.73,2.39,1.98,2.49,3.6l4.27-1.77c-3.85-4.22-6.22-9.71-6.6-15.41l-4.27,1.77c2.7,2.88,3.86,7.01,3,10.87l4.57-.6c-3.39-6.42-4.89-13.71-4.37-20.95.06-.79.13-1.57.24-2.36.09-.67.41-1.46.45-2.1.02.11.08.02.16-.26,0,.25-.22.35-.61.31l-.14-.06c.17.08.33.18.48.3.45.36.83.83,1.13,1.32,1.37,2.2,1.44,4.99.12,7.22l2.82-1.15c-1.57-.37-2.34-2.13-2.21-3.77.2-2.45,2.06-4.59,3.6-6.36l-3.93-.51c3.16,5.46,3.05,12.34-.23,17.72l4.57.6c-2.18-6.63-1.6-13.9,1.75-20.04l-4.57-.6c4.06,11.61,4.36,24.22.81,36h4.82c-2.34-10.31-1.19-21.37,3.32-30.95l-4.57-.6c2.55,7.48,3.16,16.83.08,24.09-.1.24-.37-.17-.05.03-.27-.17-.22-.11-.44-.37-.51-.59-.82-1.41-1.03-2.15-.6-2.13-.93-4.39-1.14-6.59-.45-4.77-.22-9.59.72-14.29l-4.57.6c4.59,6.58,5.82,14.92,3.27,22.53l3.08-1.75c-2.76-.99-4.72-3.76-4.84-6.66l-4.66,1.26c1.04,1.64,1.5,3.32,1.42,5.26l1.84-2.41s.11.03.1,0l-3.42,3.42c1.23.83,1.74,2.21,1.68,3.64l4.66-1.26c-2.21-3.25-4.07-6.72-5.45-10.4l-4.82,1.33c1.39,3.59,2.77,7.18,4.16,10.77l4.18-2.43c-2.72-2.71-4.52-6.03-5.36-9.78l-3.67,2.82c2.68,1.48,4.61,4.18,4.86,7.28l4.91-.66c-1.34-4.1-2.03-8.32-2-12.64s.58-8.63,2.15-12.5c.49-1.22,1.3-2.52,2.39-3.28.5-.35.81-.45,1.1-.33.54.22.87.93,1.15,1.44,1.84,3.38,2.56,7.48,2,11.29l2.41-1.84c-.34,0-.42,0-.61-.12-.24-.16-.53-.53-.7-.81-.51-.83-.77-1.77-.96-2.72-.52-2.7-.32-5.93-.1-8.75.47-6.17,2.14-12.29,4.82-17.88h-4.32c5.12,8.33,7.4,18.58,5.79,28.28-.04.25-.16.53-.15.78.02.5-.29.1.17.09,0,0,.59-.15.56-.08-.09.19-1.4-1.56-1.48-1.74-1.06-2.22-1.61-4.99-2.21-7.41-1.31-5.26-2.15-10.63-2.49-16.04-.39-6.17-.18-12.41.7-18.53h-4.82c3.76,11.1,5.76,22.71,5.83,34.43,0,2.5.24,5.46-.35,7.81-.11.44-.23.83-.44,1.16-.14.22-.28.31-.24.31.14,0,.21-.04.24,0-.31-.39-.59-.73-.83-1.19-2.34-4.54-3.44-10.06-3.75-15.12-.39-6.1.45-12.15,2.48-17.92l-4.57.6c7.58,14.37,10.53,30.86,8.6,46.97l4.27-1.77c-3.61-2.99-5.34-8.34-3.43-12.79l-3.93.51c4.11,3.39,6.54,8.82,5.76,14.18l3.08-1.75c-2.79-.87-5.25-2.64-6.91-5.05-.7-1.02-1.93-1.55-3.12-1.02-1.06.47-1.88,1.76-1.45,2.95,1.3,3.59,1.69,7.38.94,11.13l3.67-1.49c-3.33-2.33-6.66-4.65-9.99-6.98-1.28-.89-3.36,0-3.67,1.49s-.63,3.07-.95,4.6h4.82c-.94-4.22-2.99-8.05-5.86-11.27-1.69-1.9-4.84.11-4.18,2.43.54,1.93,1.09,3.85,1.63,5.78l4.57-1.93c-.64-.86-1.08-1.8-.88-2.9l-4.18,1.1c.43.37.31.45.68-.13.39-.62.16-.44.69-.5.66-.08.82.41.47,1.45.69,1.84.02,2.12-2,.84l.39-3.03c.39-.4.67-.08,1.04-.17.02,0,.05.15.04.15-.06.02.36-1.29.45-1.48.73-1.54,1.56-3.05,2.34-4.56l-3.42.9c1.5,1.13,1.66,3.24,1.04,4.85h4.82c-1.1-3.2-2.78-7.42-.89-10.63.6-1.03,1.58-2.04,2.81-2.23,1.4-.22,2.66.89,3.63,1.78,5.23,4.83,9.43,10.74,12.49,17.15,1.72,3.6,3,7.4,3.92,11.28l3.08-3.08c-2.96-1.02-4.79-3.74-6.02-6.5-1.48-3.3-2.19-6.94-2.95-10.46-1.99-9.13-3.71-18.71-1.16-27.91l-4.18,1.1c9.07,10.65,15.71,23.32,19.4,36.81,1.06,3.87,1.87,7.79,2.44,11.76l4.57-1.93c-5.57-12-7.69-25.4-6.34-38.54l-4.66,1.26c9.73,15.02,16.41,31.82,19.67,49.42l4.82-1.33c-4.18-15.92-5.86-32.37-5.02-48.8l-4.91.66c5.36,19.1,8.07,38.83,8.05,58.67l4.91-.66c-5.3-17.15-6.71-35.44-3.92-53.19h-4.82c4.72,19.46,6.75,39.49,6.07,59.5h5c-1.14-16.99-2.18-33.98-3.12-50.98h-5c1.22,14.07,1.81,28.19,1.76,42.31h5c-.94-15.57-.98-31.18-.12-46.75l-4.91.66c2.35,14.86,3.33,29.92,3,44.96-.03,1.23.97,2.31,2.17,2.46,1.1.13,2.57-.54,2.74-1.79,1.49-10.98,2.98-21.96,4.47-32.94h-4.82c1.24,7.87,1.27,15.92.23,23.82h5c.6-9.98,1.2-19.95,1.79-29.93h-5c1.28,11.35,1.55,22.78.82,34.18l4.27-1.77-1.37-1.39c-2.26-2.3-5.8,1.24-3.54,3.54l1.37,1.39c1.6,1.62,4.13.33,4.27-1.77.73-11.4.46-22.83-.82-34.18-.35-3.15-4.8-3.28-5,0-.6,9.98-1.2,19.95-1.79,29.93-.08,1.35,1.21,2.5,2.5,2.5,1.5,0,2.32-1.15,2.5-2.5,1.1-8.38.91-16.81-.41-25.15-.37-2.36-4.49-2.41-4.82,0-1.49,10.98-2.98,21.96-4.47,32.94l4.91.66c.34-15.49-.76-30.98-3.18-46.29-.19-1.21-1.64-1.96-2.74-1.79-1.26.19-2.1,1.18-2.17,2.46-.86,15.57-.82,31.18.12,46.75.19,3.19,4.99,3.25,5,0,.04-14.12-.55-28.24-1.76-42.31-.12-1.35-1.07-2.5-2.5-2.5-1.3,0-2.58,1.15-2.5,2.5.94,17,1.98,33.99,3.12,50.98.21,3.19,4.89,3.24,5,0,.69-20.44-1.43-40.96-6.25-60.83-.55-2.27-4.43-2.49-4.82,0-2.93,18.65-1.65,37.8,3.92,55.85.82,2.66,4.91,2.22,4.91-.66,0-20.25-2.76-40.5-8.23-60-.78-2.78-4.77-2.12-4.91.66-.86,16.85.91,33.81,5.2,50.13.34,1.31,1.78,2.1,3.08,1.75,1.39-.38,1.99-1.74,1.75-3.08-3.34-17.98-10.24-35.27-20.18-50.61-1.42-2.19-4.41-1.16-4.66,1.26-1.44,14.04,1.09,28.27,7.02,41.06.52,1.11,2.08,1.48,3.12,1.02,1.23-.54,1.63-1.68,1.45-2.95-2.11-14.46-7.46-28.48-15.51-40.68-2.32-3.52-4.88-6.89-7.61-10.1-1.25-1.47-3.71-.6-4.18,1.1-2.24,8.07-1.54,16.45-.06,24.58.68,3.73,1.44,7.48,2.41,11.16.77,2.96,1.78,5.94,3.35,8.58,1.85,3.11,4.48,5.51,7.93,6.7,1.88.65,3.49-1.34,3.08-3.08-1.97-8.32-5.7-16.25-10.9-23.05-2.58-3.38-5.51-7.04-9.08-9.42-3.91-2.61-8.58-1.33-11.32,2.27-3.51,4.62-2.02,10.48-.3,15.49.83,2.43,3.94,2.3,4.82,0,1.49-3.88-.14-8.08-3.34-10.5-1.04-.79-2.86-.2-3.42.9-1.48,2.89-4.21,6.52-3.29,9.93.83,3.07,4.94,4.55,7.26,2.19.86-.87.84-1.98.39-3.03-.92-2.13-3.84-2.07-5.35-.68-1.64,1.53-1.36,4.2.58,5.34,1.79,1.05,4.27.42,5.38-1.33,1.25-1.97.45-4.58-1.23-6.02-1.3-1.11-3.81-.9-4.18,1.1-.44,2.37-.1,4.79,1.38,6.76.75,1,1.9,1.56,3.12,1.02,1.12-.49,1.79-1.73,1.45-2.95-.54-1.93-1.09-3.85-1.63-5.78l-4.18,2.43c2.31,2.59,3.82,5.69,4.57,9.06.53,2.36,4.33,2.41,4.82,0,.32-1.53.63-3.07.95-4.6l-3.67,1.49c3.33,2.33,6.66,4.65,9.99,6.98,1.27.89,3.37,0,3.67-1.49.92-4.61.67-9.35-.94-13.79l-4.57,1.93c2.42,3.52,5.81,6.07,9.89,7.35,1.17.37,2.89-.44,3.08-1.75,1.03-7.08-1.46-14.43-7.05-19.05-1.09-.9-3.23-1.11-3.93.51-2.75,6.42-1.28,14.3,4.21,18.85,1.77,1.46,4.01.43,4.27-1.77,2.02-16.97-1.32-34.39-9.29-49.5-1.07-2.03-3.9-1.31-4.57.6-2.09,5.94-3.01,12.31-2.7,18.6s1.62,12.76,4.47,18.29c1.39,2.69,4.48,4.71,7.43,3,2.32-1.35,3.1-4.22,3.33-6.71.6-6.6.14-13.46-.68-20.02-.96-7.7-2.66-15.27-5.15-22.63-.36-1.05-1.27-1.84-2.41-1.84-1,0-2.26.77-2.41,1.84-1.86,12.87-1.2,25.99,2.14,38.58.74,2.78,1.36,6.05,3.1,8.4,1.58,2.14,4.39,4.06,7.04,2.48s2.59-5.42,2.79-8.08c.23-2.95.15-5.92-.22-8.85-.83-6.75-3.03-13.25-6.6-19.05-.92-1.49-3.47-1.76-4.32,0-3.34,6.95-5.28,14.47-5.61,22.19-.23,5.31-.12,15.59,7.48,15.61.99,0,2.25-.77,2.41-1.84.61-4.12.33-8.31-1.18-12.22-1.39-3.6-3.87-7.8-8.41-6.71-3.6.87-5.89,4.63-6.95,7.9-1.32,4.06-1.99,8.37-2.07,12.63-.09,4.87.66,9.79,2.17,14.42.83,2.54,5.15,2.29,4.91-.66-.39-4.84-3.04-9.23-7.34-11.59-1.96-1.08-4.15.7-3.67,2.82,1.02,4.54,3.35,8.7,6.65,11.98,1.66,1.65,5.11,0,4.18-2.43-1.39-3.59-2.77-7.18-4.16-10.77-.49-1.26-1.68-2.13-3.08-1.75-1.21.33-2.22,1.8-1.75,3.08,1.53,4.09,3.49,7.98,5.95,11.59,1.39,2.05,4.55,1.29,4.66-1.26.14-3.24-1.5-6.16-4.15-7.96-2.11-1.43-4.67,1.35-3.42,3.42s3.33,2.82,5.55,2.29c1.1-.26,1.79-1.34,1.84-2.41.11-2.75-.63-5.47-2.1-7.79-1.27-1.99-4.77-1.33-4.66,1.26.22,5.24,3.59,9.72,8.51,11.48,1.32.47,2.67-.54,3.08-1.75,2.93-8.75,1.52-18.81-3.77-26.38-1.12-1.61-4.11-1.68-4.57.6-.92,4.6-1.32,9.3-1.03,13.98.14,2.33.44,4.66.87,6.95.37,1.96.81,3.98,1.91,5.68,1.04,1.6,2.61,2.98,4.6,3.09s3.81-1.07,4.8-2.8,1.45-3.97,1.82-5.95c.41-2.2.67-4.44.75-6.67.17-5.07-.61-10.19-2.24-14.99-.63-1.85-3.59-2.69-4.57-.6-5.1,10.85-6.48,23.1-3.82,34.8.57,2.49,4.14,2.27,4.82,0,3.79-12.57,3.52-26.26-.81-38.66-.67-1.93-3.48-2.6-4.57-.6-3.96,7.27-4.84,16.01-2.25,23.9.67,2.03,3.42,2.48,4.57.6,4.19-6.88,4.26-15.8.23-22.77-.76-1.32-2.86-1.73-3.93-.51-2.55,2.92-5.25,6.44-5.07,10.55.16,3.54,2.27,7.08,5.88,7.94,1.09.26,2.24-.17,2.82-1.15,1.68-2.83,2.09-6.35,1.12-9.5s-3.7-7.11-7.41-6.76c-4.25.4-4.55,5.66-4.82,8.92-.32,3.9-.05,7.84.68,11.68.81,4.27,2.31,8.39,4.34,12.22.98,1.86,4.11,1.48,4.57-.6,1.25-5.64-.33-11.51-4.29-15.73-1.43-1.52-4.41-.4-4.27,1.77.47,7.08,3.28,13.71,8.06,18.95,1.42,1.56,4.4.38,4.27-1.77-.2-3.32-1.98-6.35-4.96-7.92-2.08-1.09-3.99.7-3.67,2.82.79,5.36,3.42,10.37,7.29,14.15,1.79,1.75,4.81,0,4.18-2.43-1.27-4.87-3.32-9.53-6.07-13.74-.68-1.04-1.95-1.54-3.12-1.02-1.04.46-1.91,1.77-1.45,2.95,2.19,5.63,4.95,11,8.35,16,1.66,2.44,4.99.84,4.57-1.93-.95-6.3-3.01-12.36-6-17.98-.64-1.19-2.29-1.56-3.42-.9-1.27.74-1.45,2.18-.9,3.42,2.64,5.96,5.78,11.67,9.39,17.09,1.6,2.4,5.12.87,4.57-1.93-1.06-5.4-2.79-10.61-5.08-15.61-.56-1.23-2.34-1.53-3.42-.9-1.29.75-1.43,2.17-.9,3.42,2.06,4.83,4.7,9.38,7.88,13.55.76.99,1.89,1.57,3.12,1.02,1.08-.47,1.86-1.75,1.45-2.95-2.49-7.28-6.08-14.12-10.75-20.25-.82-1.07-2.15-1.64-3.42-.9-1.15.67-1.6,2.26-.9,3.42l8.15,13.42c1.5,2.48,5.15.82,4.57-1.93-2.11-9.99-4.5-19.92-7.16-29.77l-4.57,1.93c3.79,8.91,7.58,17.82,11.37,26.74.42,1,1.86,1.41,2.82,1.15,1.07-.29,1.81-1.31,1.84-2.41.32-15.57-2.77-31-8.89-45.31-.48-1.13-2.11-1.47-3.12-1.02-1.19.52-1.69,1.69-1.45,2.95,3.15,16.4,8.56,32.31,15.98,47.27,1.06,2.13,4.96,1.21,4.66-1.26-2.06-17.17-6.88-33.83-14.35-49.43-1.05-2.19-4.88-1.18-4.66,1.26,1.46,15.96,5.66,31.49,12.44,46.02,1.06,2.27,4.75,1.12,4.66-1.26-.75-20.39-2.79-40.72-6.05-60.86l-4.82,1.33c3.55,20.27,7.1,40.54,10.65,60.81,1,5.72,2,11.44,3.01,17.16.48,2.77,5.07,2.14,4.91-.66-1.3-22.91-4.04-45.75-8.23-68.31-1.18-6.38-2.49-12.75-3.9-19.09-.6-2.7-5.21-2.17-4.91.66,2.11,20.15,5.24,40.2,9.41,60.03,1.17,5.58,2.43,11.14,3.77,16.69.68,2.83,4.78,2.08,4.91-.66,1.03-21.75.12-43.59-2.75-65.17-.82-6.18-1.78-12.34-2.91-18.48-.51-2.77-5.04-2.14-4.91.66,1.03,21.59,3.13,43.12,6.28,64.5.64,4.35.86,10.72,5.58,12.8,1.74.77,3.67-.13,3.76-2.16.93-19.88-.56-39.85-4.4-59.37-1.08-5.49-2.35-10.95-3.8-16.35-.76-2.84-4.7-2.06-4.91.66-.7,9.12-.75,18.28-.14,27.4.31,4.58.8,9.15,1.42,13.7.58,4.24,1.18,8.55,2.24,12.7s2.89,7.87,6.5,10.17c1.7,1.09,3.63-.37,3.76-2.16.62-8.78.61-17.59-.08-26.36-.35-4.49-.88-8.96-1.56-13.41-.58-3.81-1.18-7.68-2.28-11.38-1.17-3.92-3.03-7.72-6.15-10.45-1.4-1.22-3.64-.79-4.18,1.1-5.09,17.88-3.43,37.25,4.43,54.07.87,1.87,4.23,1.48,4.57-.6,1.4-8.53,1.52-17.11.34-25.67-.28-2.02-.63-4.02-1.06-6.02-.39-1.83-.64-4.29-2.08-5.64-1.54-1.45-3.96-1.19-5.01.68s.16,4.55,2.5,4.5c3.21-.06,3.22-5.07,0-5h0l.06.15Z"/>
    <path class="st1" d="M215.95,105.67c.69-.14,1.3-.41,1.84-.81,6.18-.55,11.5-4.33,12.28-10.84.67-5.67-2.75-12.62-8.95-13.71-4.19-.74-7.66-.88-11.79.22-15.53,4.14-8.94,28.26,6.65,24.11,2.28-.61,4.44-1.35,6.61-2.26,5.74-2.42,9.96-7.03,8.95-13.71-.95-6.31-5.91-10.5-12.28-10.84l-4.12-.22v25c2.5.09,4.9-.03,7.38-.35l-3.32-24.55c-1.01.16-2.6-.1-3.57-.18-6.74-.54-12.5,6.13-12.5,12.5,0,7.27,5.75,11.88,12.5,12.5l5.22.48-3.32-24.55-15.12,3.69,15.38,15.38.44-1.2-3.21,5.52.97-.84c9.83-8.55-.72-23.75-12.16-20.89-.65.16-1.31.33-1.96.49l12.16,20.89,1.64-1.49c6.88-6.25,3.41-18.77-5.52-20.89-.76-.18-1.51-.36-2.27-.54l-6.65,24.11c2.63.56,4.04.98,6,2.16.34.2,1.96,1.39,1.65,1.13l1.07,1.03c1.71,2.01,1.48,1.35-.68-1.96l1.26-9.63-.4.6,10.79-6.19h-.65c4.02,3.05,8.04,6.11,12.05,9.17l-.23-1.16v6.65c-.79,5.82-10.5.29-11.49,2.84-.26.67.02.51.12,2,.11,1.6.29,3.2.43,4.8l.14,1.6c-.02,2.36.31,2.15,1-.64l4.48-4.48-.9.56,6.31-1.71-1.02.02,6.31,1.71c.06.04,2.45,2.02,2.24,2.07-.17.05-.51-1.97-.5-1.88-.16-1.73.16-2.44.52-3.16-7.62-1-15.23-1.99-22.85-2.99,1.65,4.51,2.2,8.38,1.09,12.91h24.11c-1.56-3.75-1.92-6.12-.7-9.93-7.62,1-15.23,1.99-22.85,2.99.97,1.92.62,1.08,1.31,3.11,2.17,6.39,8.59,10.6,15.38,8.73,6.43-1.77,10.66-8.88,8.73-15.38-.87-2.93-1.12-5.18-.99-8.3l-24.55,3.32c.45-.89.47-.54.07,1.05,7.76-2.1,15.53-4.21,23.29-6.31l-.47-.96,1.71,6.31-1,3.3h-21.59c1.97,2.8.34-3.2-.03.2l21.34-8.84,1.7,5.73c-6.96,1.84-13.93,3.68-20.89,5.52l-1.81-5.76c7.62-1,15.23-1.99,22.85-2.99.68,1.79.7,3.58.06,5.38h-21.59l-.78-4.61c6.96-1.84,13.93-3.68,20.89-5.52l1.29,8.96-22.85-2.99.38,1.3v-6.65l-.51,1.26c6.96-1.84,13.93-3.68,20.89-5.52l.56.97,1.71,6.31.07-1.05-6.19,10.79.77-.59-18.36-7.47c1.66,4.25,2.54,8.16,2.5,12.69l24.55-3.32c-.59-2.13-.71-1.65-.34,1.46h-24.11c1.54,4.55,2.68,9.1,3.01,13.89l18.81-10.79c2.79,6.82,4.03,8.47,3.72,4.97,0-1.28-.04-2.56-.1-3.84-.11-2.56-.33-5.11-.62-7.65-.51-4.38-.89-9.03-2.24-13.24-3.39-10.57-16.5-18.45-25.79-9.02-3.78,3.84-4.91,10.46-1.95,15.15,2.59,4.12,6.52,6.42,11.4,6.51,5.53.11,10.54-3.97,12.05-9.18l.08-.27c4.49-15.48-19.63-22.09-24.11-6.65l-.08.27,12.05-9.18h-.41c3.6,2.06,7.2,4.12,10.79,6.18l-.2-.32-1.95,15.15.46-.47-8.84,3.66c-7.66.38-8.4-9.07-7-2.87.3,1.32.51,2.69.7,4.02.45,3.25.62,6.54.72,9.81.24,7.5,1.65,14.52,8.7,18.54,7.77,4.43,19.49-1.07,18.81-10.79-.49-7.01-1.65-13.88-3.91-20.54-1.78-5.25-6.33-9.18-12.05-9.18-5.21,0-10.98,3.85-12.05,9.18-.8,3.99-.99,7.93.34,11.84,4.45,13.03,24.43,11.29,24.55-3.32.06-6.59-.99-13.19-3.4-19.34-2.57-6.57-11.32-12.89-18.36-7.47-4.06,3.12-7.05,6.44-7,11.91.04,4.2,1.75,8.2,5.02,10.93,7.71,6.44,17.22,3.54,20.89-5.52,1.25-3.09,1.05-6.05.13-9.21-2.96-10.14-17.47-12.5-22.85-2.99-4.12,7.3-2.86,15.2,2.62,21.34,6.71,7.51,17.94,2.76,20.89-5.52,1.76-4.95.88-10.2-1.74-14.65-4.86-8.24-16.66-7.94-21.59,0-3.8,6.13-3.75,13.69-.06,19.85,5.46,9.11,20.07,7.53,22.85-2.99,1.88-7.11-.08-13.06-4.62-18.56-5.91-7.17-19.02-3.19-20.89,5.52-1.57,7.28.18,12.91,4.73,18.59,3.05,3.8,9.56,4.39,13.65,2.58,4.9-2.15,7.13-6.24,7.68-11.42.48-4.45-.82-9.16-3.39-12.82-5.45-7.75-16.24-8.31-21.59,0-3.41,5.31-2.9,11.1-.24,16.58,2.38,4.92,9.09,7.13,14.12,5.74,5.75-1.58,8.48-6.52,9.18-12.05.32-2.57-.05-5.26-.97-7.69-2.2-5.81-7.21-9.93-13.71-8.95s-10.57,5.92-10.84,12.28c-.21,5.03.45,10.12,1.88,14.95l24.11-6.65c-1.06-3.11-2.34-6.15-3.83-9.08-5.13-10.07-19.76-6.67-22.85,2.99-2.4,7.51-2.34,15.9.7,23.22,2.15,5.18,6.05,9.18,12.05,9.18,5.37,0,10.76-3.86,12.05-9.18,2.12-8.69,2-17.76-1.09-26.2-1.73-4.72-5.17-8.33-10.39-8.95-4.71-.56-10.17,1.48-12.45,5.97-5.28,10.34-5.48,23.06,1.71,32.62,4.29,5.7,12.13,8.23,18.64,4.53s8.37-10.12,7.8-17.01c-.92-11.12-1.59-23.44-12.59-29.48-13.74-7.53-28.41,4.86-25.5,19.4,1.07,5.36,6.85,9.14,12.05,9.18,6.07.05,11.48-3.89,13.1-9.77s-1.07-10.59-4.73-14.63c-5.41-5.97-12.91-10.17-20.77-11.84-6.6-1.4-13.51,1.95-15.38,8.73-1.74,6.35,2.13,13.81,8.73,15.38.76.18,1.51.36,2.27.54-1.84-6.96-3.68-13.93-5.52-20.89l-1.64,1.49c-9.57,8.69.56,23.79,12.16,20.89l1.96-.49-12.16-20.89c-2.44,2.12-3.53,4.58-4.62,7.56-3.43,9.37,6.8,17.47,15.38,15.38l15.12-3.69c5.98-1.46,9.84-7.79,8.95-13.71-.98-6.49-5.91-10.25-12.28-10.84l-5.22-.48v25c3.48.28,6.77-.17,10.21-.71,13.76-2.18,10.67-26.35-3.32-24.55-2.48.32-4.88.43-7.38.35-6.75-.23-12.5,5.91-12.5,12.5,0,7.07,5.73,12.14,12.5,12.5l4.12.22-3.32-24.55c-2.17.92-4.34,1.66-6.61,2.26l6.65,24.11-1.51-.22,3.32-24.55c-2.96.26-5.73.58-8.49,1.7-6.25,2.55-10.67,8.31-8.73,15.38,1.63,5.92,9.09,11.3,15.38,8.73h0l.07-.06Z"/>
    <path class="st1" d="M200.08,116.25c.76,15.89,1.51,31.78,2.27,47.67l24.55-3.32c-3.4-13.68-4.12-27.62-4.81-41.65l-24.55,3.32c1.9,12.42,2.83,24.96,3.11,37.52l24.55-3.32c-2.06-7.06-1.7-14.57-1.96-21.86-.29-8.31-.59-16.63-.88-24.94-.57-16.02-25.24-16.15-25,0,.2,13.27.4,26.53.6,39.8h25c-.23-6.96-.27-13.92-.05-20.88.1-3.16.25-6.32.45-9.48.12-1.9.26-3.79.41-5.68s1.81-5.85-.42-1.58l-4.48,4.48.93-.47h-12.62c-2.63-4.44-3.67-5.57-3.12-3.37.18.81.32,1.63.44,2.46.22,1.33.43,2.67.6,4.01.42,3.23.7,6.49.93,9.74.48,6.99.53,13.99.25,20.99l24.55-3.32c-2.85-7.83-2.25-17.79-2.94-26.05-.57-6.73-5.34-12.5-12.5-12.5s-12.26,5.73-12.5,12.5c-.16,4.52-.32,9.04-.47,13.55-.07,1.94-.11,3.87-.2,5.81-.04.92-1.01,3.72-.13,2.07l22.85,2.99c-1.29-4.89-2.29-9.8-3.01-14.8-1.31-9.04-15.27-12.31-20.89-5.52-2.28,2.76-3.98,5.49-4.78,8.97-.34,1.49-.49,3.14-.56,4.68-.1,1.52-.09,1.79.04.81.22-1.97,1.33-3.54,3.35-4.73l18.36,7.47c-.87-2.28-.75-2.13-.63-3.88h-25c.65,5.96.23,11.14-1.61,16.85h24.11c-1.32-3.97-2.16-7.78-2.32-11.95-.26-6.75-5.56-12.5-12.5-12.5-7.32,0-11.82,5.75-12.5,12.5-.51,5.07-.45,10.04.19,15.1l24.55-3.32c-.71-3.06-1.41-6.12-2.12-9.17-1.38-6-7.85-9.84-13.71-8.95-5.53.83-11.6,6.03-10.84,12.28l1.66,13.7,24.55-3.32c-.79-2.44-1.37-4.7-1.5-7.25h-25l.9,10.21,23.29-6.31-3.03-7.05c-2.42-5.64-10.52-7.35-15.61-5.11-5.57,2.45-9.02,8.65-7.24,14.75.71,2.43,1.46,4.93,1.76,7.46l23.29-6.31c.21,1.21.18,1.08-.11-.4-7.62,3.21-15.23,6.42-22.85,9.63-.19-.35,0-2.96-.04.39l24.55-3.32c-2.73-7.14-4.07-13.5-2.61-21.06,1.74-9.02,3.13-17.19,1.87-26.37-.92-6.69-9.48-10.35-15.38-8.73-7.21,1.98-9.66,8.66-8.73,15.38.93,6.73-2.41,14.9-3.17,21.58-1.01,8.83.76,17.61,3.91,25.85,2.22,5.8,7.19,9.93,13.71,8.95,6.11-.92,10.79-5.93,10.84-12.28.04-4.74-1.13-8.86-3.37-13.01-2.93-5.42-10.13-7.52-15.61-5.11-5.92,2.6-8.51,8.48-7.24,14.75.46,2.25,1.39,4.44,2.63,6.37,2.99,4.69,8.63,7.25,14.12,5.74,4.85-1.33,9.82-6.69,9.18-12.05-.58-4.82-1.29-9.45-2.66-14.1-7.62,3.21-15.23,6.42-22.85,9.63l3.03,7.05c4.86,11.31,24.35,5.65,23.29-6.31l-.9-10.21c-.6-6.72-5.32-12.5-12.5-12.5-6.5,0-12.85,5.72-12.5,12.5.24,4.73.93,9.38,2.39,13.89,1.91,5.89,7.44,9.9,13.71,8.95,5.53-.83,11.6-6.03,10.84-12.28l-1.66-13.7-24.55,3.32,2.12,9.17c1.38,6,7.85,9.84,13.71,8.95,5.51-.83,11.63-6.03,10.84-12.28-.64-5.06-.7-10.03-.19-15.1h-25c.24,6.32,1.22,12.59,3.21,18.59,3.9,11.77,20.27,11.96,24.11,0,2.43-7.55,3.36-15.61,2.5-23.5-.73-6.71-5.22-12.5-12.5-12.5s-12.04,5.74-12.5,12.5c-.24,3.54.26,7.21,1.53,10.52,2.92,7.62,10.73,11.61,18.36,7.47,4.02-2.18,6.75-5.84,8.05-10.21.53-1.79.72-3.7.86-5.55.05-.63.08-1.27.08-1.91-.19,1.07-.05.91.41-.5l-3.21,5.52.81-.98c-6.96-1.84-13.93-3.68-20.89-5.52.72,5,1.72,9.92,3.01,14.8,2.68,10.17,17.72,12.51,22.85,2.99s3.84-23.1,4.22-34.05h-25c.46,5.43.91,10.86,1.37,16.29s.58,11.21,2.46,16.41c4.74,13.04,23.97,11.27,24.55-3.32.41-10.19.06-20.37-1.15-30.5-1.21-10.13-2.08-24.66-14.97-26.4-7.02-.95-13.19,3.86-15.18,10.45-1.46,4.86-1.29,10.81-1.61,15.87-.63,10.11-.73,20.24-.39,30.37.54,16.03,25.24,16.15,25,0-.2-13.27-.4-26.53-.6-39.8h-25c.32,8.98.64,17.96.96,26.93.32,8.97.28,17.93,2.78,26.51,3.88,13.29,24.86,11.08,24.55-3.32s-1.76-29.52-4-44.16c-.93-6.06-8.21-9.78-13.71-8.95-5.85.88-11.15,5.96-10.84,12.28.79,16.2,1.78,32.49,5.7,48.29,3.35,13.5,25.23,10.91,24.55-3.32-.76-15.89-1.51-31.78-2.27-47.67-.32-6.75-5.52-12.5-12.5-12.5-6.52,0-12.82,5.72-12.5,12.5h0l.02-.02Z"/>
    <path class="st1" d="M190.59,101.16c1.68,4.01,3.25,8.45,3.74,12.7l24.55-3.32c-1.66-6.17-3.32-12.33-4.98-18.5-1.75-6.52-8.9-10.51-15.38-8.73-6.86,1.88-10.12,8.75-8.73,15.38,1.24,5.93,2.2,11.85,2.78,17.88,7.76-2.1,15.53-4.21,23.29-6.31-.54-1.27-1.08-2.54-1.62-3.81-1.89-4.45-8.13-6.62-12.45-5.97-4.86.73-9.05,4.08-10.39,8.95-.54,1.97-.78,3.98-.87,6.02-.28,6.75,5.94,12.5,12.5,12.5,7.01,0,12.21-5.73,12.5-12.5.17-3.94-.36-7.94-1.48-11.72-1.75-5.92-7.57-9.88-13.71-8.95-5.66.85-11.42,6-10.84,12.28.26,2.8.51,5.61.77,8.41,7.76-2.1,15.53-4.21,23.29-6.31-.64-1.44-1.28-2.88-1.92-4.32-4.93-11.1-24.63-5.78-23.29,6.31.43,3.87.97,7.71,1.87,11.5,3.24,13.6,25.12,10.84,24.55-3.32-.41-10.4-2.83-19.82-6.85-29.35-2.63-6.22-11.81-7.58-17.1-4.48-6.44,3.77-7.12,10.86-4.48,17.1,2.21,5.23,3.22,11.09,3.44,16.73l24.55-3.32c-.38-1.59-.81-3.33-.97-4.85l-23.29,6.31c.64,1.44,1.28,2.88,1.92,4.32,4.97,11.2,24.4,5.72,23.29-6.31-.26-2.8-.51-5.61-.77-8.41l-24.55,3.32c.55,1.86.67,3.05.58,5.07h25l-.03.63c-7.62,1-15.23,1.99-22.85,2.99.54,1.27,1.08,2.54,1.62,3.81,4.81,11.3,24.45,5.66,23.29-6.31-.8-8.24-1.98-16.43-3.68-24.53l-24.11,6.65c1.66,6.17,3.32,12.33,4.98,18.5s7.68,9.86,13.71,8.95c5.55-.83,11.56-6.02,10.84-12.28-.78-6.74-2.01-13.07-4.63-19.34s-8.28-10.68-15.38-8.73c-5.87,1.61-11.35,9.11-8.73,15.38h0l.02-.02Z"/>
    <path class="st1" d="M249.64,163.62l.44-.69-4.48,4.48.73-.35-6.31,1.71-1.65-.22-5.52-3.21.61.53-3.21-5.52.24.78v-6.65l-.24.79,3.21-5.52-.61.54,5.52-3.21,1.65-.21,6.31,1.71-.73-.35,4.48,4.48-.44-.69,1.71,6.31.03-1.21-1.71,6.31c-.41.26-.71.62-.92,1.06l-6.31,1.71,1.13.13-8.84-3.66.66.76-3.66-8.84.08,1.02,1.71-6.31-.54.85,7.47-5.74-.98.23,9.63,1.26-.94-.41,4.48,4.48-.5-.87v12.62l.56-1.1-4.48,4.48,1.05-.66-15.15-1.95.67.57-3.21-5.52.18.89v-6.65l-.29.86,5.74-7.47-.73.48,18.81,10.79-.06-.98-1.71,6.31.63-.82-7.47,5.74.96-.38h-6.65l.92.33-8.73-8.73.34.92v-6.65l-.37.96,3.21-5.52-.8.64,8.84-3.66-.98-.05,8.84,3.66-.6-.63,3.21,5.52-.17-.87v6.65l.23-.88-3.21,5.52.61-.65-5.52,3.21,1.15-.25h-6.65l1.14.4-5.52-3.21.83.89-3.21-5.52.27.98v-6.65l.52-1.2,7.47-5.74-.95.3h6.65l-.95-.28,7.47,5.74-.56-.77,1.26,9.63.23-.91-5.74,7.47.81-.53-9.63,1.26.87.22c-1-7.62-1.99-15.23-2.99-22.85l-.54.4,6.31-1.71-.67.03,8.84,3.66-.57-.54,3.21,5.52-.16-.77v6.65l.19-.8-3.21,5.52.49-.62-5.52,3.21.75-.22c9.79-2.92,11.21-13.62,5.52-20.89,1.25,1.59.91,2.97,1.05.5-7.76,2.1-15.53,4.21-23.29,6.31.45,1.04.9,2.08,1.35,3.12l19.63-15.15c-1.23-.99-.52-.51-1.23-1.01-.85-.62.11-.59.15.41l-24.55,3.32c.95,2.58,2.01,5.4,2.35,8.12l24.55-3.32c-1.46-5.52-2.45-10.98-2.82-16.68l-24.55,3.32c1.87,4.43,2.87,8.52,2.82,13.31l12.5-12.5-.91-.07,6.31,1.71-.74-.52,4.48,4.48c-.77-1.15-.78-1.1-.02.15-.23-1.16-.46-2.32-.69-3.49-.46-2.32-.92-4.65-1.39-6.97-.94-4.75-5.85-8.41-10.39-8.95-5.28-.63-9.42,1.73-12.45,5.97-1.16,1.62-1.65,3.36-1.94,5.29-.11.76-.98,4.42.06,1.04l3.21-5.52-.65.52,15.15-1.95-.57-.27c-6.11-2.86-13.48-1.71-17.1,4.48-3.17,5.42-1.66,14.22,4.48,17.1l.57.27c5.59,2.62,10.44,1.82,15.15-1.95,3.9-3.13,4.39-7.51,4.48-12.06l-1.71,6.31.46-.64-22.85-2.99c2.14,10.77,3.74,21.98,17.06,23.06,6.79.55,12.43-6.18,12.5-12.5.07-6.83-1.06-13.65-3.72-19.95-2.42-5.74-7.03-9.96-13.71-8.95-5.77.87-11.25,5.98-10.84,12.28.52,7.87,1.7,15.69,3.71,23.32,1.57,5.96,7.7,9.86,13.71,8.95,5.51-.83,11.62-6.03,10.84-12.28-.64-5.11-1.45-9.93-3.24-14.77-2.15-5.82-7.25-9.93-13.71-8.95-5.89.89-11.09,5.96-10.84,12.28.28,6.96,2.87,13.8,8.4,18.28,11.31,9.15,25.35-1.95,19.63-15.15-.45-1.04-.9-2.08-1.35-3.12-2.16-4.99-9.26-7.08-14.12-5.74-5.5,1.51-8.86,6.53-9.18,12.05-.39,6.7,2.26,12.06,6.27,17.18,1.84-6.96,3.68-13.93,5.52-20.89-7.67,2.29-12.14,9.96-10,17.79s13.09,12.79,20.14,7.58c4.11-3.03,6.77-7.09,5.97-12.45-.72-4.77-4.07-9.18-8.95-10.39-8.79-2.19-17.74,3.82-17.74,13.28s9.79,15.33,18.28,12.8c8.49-2.53,11.91-12.07,8.56-19.63-3.72-8.4-14.64-11.72-22.13-6.04-6.52,4.94-7.79,15.02-1.93,21.06,6.25,6.44,17.38,5.42,22.01-2.49s.56-18.13-8.37-20.57-17.92,5.32-17.34,14.23,10.37,16.31,18.81,10.79c7.47-4.88,10.19-16.03,2.71-22.44-4.13-3.55-10.23-5.05-15.15-1.95-7.3,4.6-10.44,13.77-4.62,21s17.47,6.91,22.53-1.09c4.44-7.02,1.74-17.18-6.17-20.36-7.39-2.97-15.67.58-19.71,7.28s-2.73,16.06,4.31,20.13c6.37,3.69,14.66,2.24,19.15-3.64,5.02-6.57,3.04-16.28-4.12-20.47s-15.7-1.37-19.95,5.3c-3.63,5.69-1.18,13.79,4.48,17.1,6.03,3.53,13.46,1.22,17.1-4.48h.02Z"/>
    <path class="st1" d="M246.16,214.94c-1.45-10.3-2.26-20.7-2.7-31.09l-24.55,3.32c1.56,5.65,2.43,11.11,2.6,16.96h25l-.9-20.86-24.55,3.32c1.97,6.01,2.44,11.93,2.87,18.2.23,3.22.5,6.42.9,9.62.15,1.18.66,4.56.71,4.77.29,1.42-.38,1.58.23.69,7.76,2.1,15.53,4.21,23.29,6.31-1.68-20.78-5.07-41.4-10.37-61.56l-24.11,6.65c.94,3.51,1.88,7.02,2.83,10.53,2.08,7.76,11.45,11.58,18.36,7.47,8.99-5.34,8.5-18.27,10-27.47h-24.11c.57,3.86.25,7.95-.54,11.74-3.28,15.77,18.89,21.9,24.11,6.65,2.24-6.55,3.41-13.23,4.05-20.12h-25c.19,7.13-.29,14.08-1.74,21.06-1.37,6.6,1.93,13.51,8.73,15.38s13.52-2.21,15.38-8.73,3.26-12.83,4.34-19.39-1.74-13.45-8.73-15.38c-6.22-1.71-13.97,2.1-15.38,8.73-2.42,11.42-4.19,22.95-5.46,34.56h25c.51-9.71,1.33-19.39,2.43-29.05.7-6.09-5.29-11.62-10.84-12.28s-12.71,2.74-13.71,8.95c-.54,3.33-1.08,6.66-1.62,9.98l24.55,3.32c.22-1.8,1.1-4.39,1.99-6.22l-22.85-2.99c.45,3.05-.58,6.38-1.77,9.49-2.2,5.74,1.96,12.62,7.24,14.75,6.25,2.52,11.7-.02,15.61-5.11,4.48-5.83,6.59-13.52,6.1-20.82-.37-5.54-3.62-10.53-9.18-12.05-5.05-1.39-11.71.83-14.12,5.74-1.44,2.95-2.89,5.91-4.33,8.86-2.96,6.06-1.64,13.52,4.48,17.1,5.5,3.22,14.13,1.61,17.1-4.48,1.44-2.95,2.89-5.91,4.33-8.86-7.76-2.1-15.53-4.21-23.29-6.31.25,3.66-.18,4.95-2.68,8.2l22.85,9.63c2.86-7.45,2.93-15,1.77-22.78-1.56-10.51-18.4-12.2-22.85-2.99-2.99,6.2-4.55,12.03-5.4,18.84-.76,6.08,5.33,11.62,10.84,12.28s12.71-2.74,13.71-8.95c.54-3.33,1.08-6.66,1.62-9.98l-24.55-3.32c-1.11,9.66-1.92,19.34-2.43,29.05-.36,6.75,6,12.5,12.5,12.5,7.37,0,11.76-5.76,12.5-12.5,1.03-9.38,2.61-18.68,4.57-27.91l-24.11-6.65c-1.08,6.55-2.52,13-4.34,19.39l24.11,6.65c1.9-9.12,2.88-18.39,2.63-27.7-.18-6.75-5.62-12.5-12.5-12.5-7.29,0-11.87,5.75-12.5,12.5-.43,4.61-1.66,9.1-3.16,13.47l24.11,6.65c1.78-8.54,1.81-16.43.54-25.03-1.77-12.01-22.18-11.86-24.11,0-.53,3.28-1.06,6.56-1.6,9.83-.24,1.49-.48,2.98-.73,4.47-.16.98-1.65,5.45.04,2.29l4.48-4.48-.71.42,18.36,7.47c-.94-3.51-1.88-7.02-2.83-10.53-4.17-15.53-28.2-8.95-24.11,6.65,4.74,18.03,7.97,36.33,9.47,54.92,1.01,12.47,16.14,16.87,23.29,6.31,5.39-7.96,2.35-17.16,1.7-25.94s-1.08-18.02-3.89-26.6c-1.92-5.88-7.43-9.9-13.71-8.95-5.88.88-11.11,5.96-10.84,12.28l.9,20.86c.29,6.75,5.54,12.5,12.5,12.5s12.7-5.72,12.5-12.5c-.23-7.97-1.37-15.92-3.49-23.61-3.67-13.32-25.16-11.05-24.55,3.32.53,12.65,1.82,25.2,3.59,37.74.94,6.69,9.47,10.35,15.38,8.73,7.2-1.98,9.68-8.66,8.73-15.38h0l.02-.03Z"/>
    <path class="st1" d="M182.18,235.13c.37.41.72.84,1.07,1.26-1.1-1.45-1.24-1.63-.45-.56.54.81,1.09,1.59,1.6,2.41s.98,1.66,1.43,2.52c.36.69,1.88,4.22.47.77,7.62-3.21,15.23-6.42,22.85-9.63-1.49-3.17-2.99-6.34-4.48-9.51l-21.59,12.62c.48.63.94,1.26,1.34,1.93.21.34.4.68.57,1.03.43.85.28.45-.44-1.2-.13.23.65,1.99.72,2.24.19.76.32,1.54.42,2.32,6.12-4.71,12.24-9.41,18.36-14.12,3.07,2.33.53.2-.12-.45-.84-1-.63-.72.64.83-.27-.4-.52-.8-.75-1.22s-.45-.84-.65-1.28c.77,1.9.93,2.22.5.98-.2-.94-.46-1.84-.6-2.8l-20.89,12.16c.54.58,1.05,1.18,1.58,1.77,1.65,1.82-1.57-2.27.19.32.97,1.42,1.81,2.91,2.59,4.45,2.94,5.86,11.68,7.98,17.1,4.48,5.99-3.86,7.63-10.84,4.48-17.1-2.13-4.25-5.03-8.13-8.27-11.6-3.63-3.88-10.63-4.87-15.15-1.95-5.08,3.28-6.58,8.36-5.74,14.12,1.16,7.97,6.28,14.18,12.48,18.87,1.56,1.18,4.41,1.71,6.31,1.71,2.78,0,5.4-1,7.57-2.68,4.32-3.34,5.2-7.97,4.48-13.14-.61-4.37-2.47-8.79-5.13-12.3-2.06-2.7-4.06-4.8-7.47-5.74-2.99-.82-6.98-.45-9.63,1.26-6.1,3.94-7.47,10.76-4.48,17.1,1.49,3.17,2.99,6.34,4.48,9.51,2.64,5.62,10.34,7.34,15.61,5.11s9.61-8.97,7.24-14.75c-2.69-6.55-5.9-12.07-10.55-17.45-4.29-4.96-13.34-4.73-17.68,0-4.86,5.29-4.58,12.38,0,17.68h0v.03Z"/>
    <path class="st1" d="M197.37,299.87l1.98,7.54c3.53,13.44,25.09,10.96,24.55-3.32-.72-18.91-1.43-37.82-2.15-56.73l-24.55,3.32c7.45,18.77,8.6,38.6,9.52,58.55h25c-1.27-21.51-1.78-43.06-1.53-64.61l-24.55,3.32c6.14,17.67,6.89,36.03,7.51,54.55h25c-1.75-19.82-2.04-39.7-.87-59.56l-24.55,3.32c2.22,14.83,3.05,29.85,2.91,44.83h25c-.43-14.38-.39-28.76.1-43.14h-25c.35,17.59.46,35.19.33,52.78-.12,16.1,24.79,16.1,25,0s.44-32.88.66-49.32h-25c.37,13.99,1.23,27.94,2.59,41.87.65,6.72,5.28,12.5,12.5,12.5s11.98-5.74,12.5-12.5c1.11-14.37.83-28.74-.84-43.06-.78-6.7-5.19-12.5-12.5-12.5s-12.04,5.74-12.5,12.5c-.73,10.68-.73,21.35,0,32.03.47,6.74,5.41,12.5,12.5,12.5,7.47,0,11.64-5.77,12.5-12.5,1.21-9.46,1.76-18.93,1.66-28.47-.07-6.17-4.7-11.55-10.84-12.28-5.65-.67-12.64,2.75-13.71,8.95-.91,5.26-1.82,10.53-2.73,15.79l24.55,3.32c.53-6.47.41-12.86-.36-19.3-.66-5.56-3.42-10.47-9.18-12.05-5.03-1.38-11.74.81-14.12,5.74-4.26,8.86-5.82,17.93-6.42,27.69-.51,8.17-.48,15.92-3.05,23.69l24.55,3.32c-.96-13.72-3.14-27.34-6.73-40.62-3.62-13.38-25.11-11-24.55,3.32s1.06,27.43,1.59,41.15l24.55-3.32c-3.48-10.12-6.32-20.41-8.52-30.88-2.98-14.13-24.24-10.42-24.55,3.32-.36,16.09.08,32.17,1.33,48.21l24.55-3.32c-2.81-11.33-6.21-22.48-10.21-33.46-2.12-5.83-7.27-9.92-13.71-8.95-5.54.83-11.58,6.02-10.84,12.28,1.6,13.51,3.19,27.02,4.79,40.53h25c-1.3-10.74-3.07-21.35-5.64-31.86-1.46-5.98-7.79-9.84-13.71-8.95-5.6.84-11.5,6.01-10.84,12.28,1.21,11.51,2.42,23.02,3.63,34.53l24.55-3.32c-2.44-7.25-4.88-14.51-7.33-21.76-4.36-12.97-24.67-11.33-24.55,3.32.06,7.29.53,14.54,1.43,21.78l24.55-3.32c-1.51-7.53-3.02-15.06-4.53-22.59-2.84-14.17-24.24-10.38-24.55,3.32-.08,3.68-.17,7.35-.25,11.03h25c.14-6.49-1.6-12.6-3.17-18.83-1.33-5.26-.91-9.4.63-14.58,3.72-12.52,6.66-24.7,7.28-37.84.32-6.75-5.97-12.5-12.5-12.5-7.03,0-12.18,5.73-12.5,12.5-.58,12.24-4.51,22.97-7.37,34.74-1.65,6.77-1.83,13.19-.61,20.02.99,5.55,3.37,10.8,3.25,16.49-.34,16.1,24.64,16.09,25,0,.08-3.68.17-7.35.25-11.03l-24.55,3.32c1.51,7.53,3.02,15.06,4.53,22.59,1.21,6.02,7.99,9.81,13.71,8.95s11.61-6.03,10.84-12.28c-.9-7.24-1.37-14.49-1.43-21.78l-24.55,3.32c2.44,7.25,4.88,14.51,7.33,21.76,1.98,5.87,7.39,9.91,13.71,8.95,5.6-.84,11.5-6.01,10.84-12.28-1.21-11.51-2.42-23.02-3.63-34.53l-24.55,3.32c2.04,8.31,3.72,16.72,4.75,25.21.81,6.7,5.17,12.5,12.5,12.5,6.14,0,13.3-5.75,12.5-12.5-1.6-13.51-3.19-27.02-4.79-40.53l-24.55,3.32c4,10.97,7.4,22.12,10.21,33.46,3.32,13.39,25.67,10.96,24.55-3.32-1.25-16.05-1.69-32.12-1.33-48.21l-24.55,3.32c2.21,10.47,5.05,20.76,8.52,30.88,2.01,5.86,7.36,9.91,13.71,8.95,5.9-.89,11.08-5.95,10.84-12.28-.53-13.72-1.06-27.43-1.59-41.15l-24.55,3.32c3.02,11.17,5.03,22.44,5.83,33.98.98,14.02,20,17.02,24.55,3.32,2.7-8.14,3.26-16.83,3.68-25.34.34-6.79.31-13.91,3.27-20.06-7.76-2.1-15.53-4.21-23.29-6.31.77,6.44.89,12.84.36,19.3-1.13,13.89,22.14,17.24,24.55,3.32.91-5.26,1.82-10.53,2.73-15.79l-24.55-3.32c.11,9.54-.44,19.01-1.66,28.47h25c-.74-10.68-.75-21.35,0-32.03h-25c1.67,14.32,1.95,28.68.84,43.06h25c-1.35-13.93-2.22-27.88-2.59-41.87-.43-16.06-24.79-16.13-25,0s-.44,32.88-.66,49.32h25c.13-17.6.02-35.19-.33-52.78-.32-16.11-24.45-16.08-25,0-.5,14.38-.53,28.76-.1,43.14.48,16.05,24.85,16.14,25,0,.16-17.27-1.24-34.4-3.8-51.48-.91-6.06-8.23-9.78-13.71-8.95-6.34.95-10.47,5.91-10.84,12.28-1.16,19.86-.87,39.74.87,59.56.59,6.73,5.32,12.5,12.5,12.5,6.6,0,12.73-5.72,12.5-12.5-.68-20.57-1.59-41.58-8.4-61.2-4.51-12.99-24.38-11.31-24.55,3.32-.25,21.55.26,43.09,1.53,64.61.4,6.74,5.46,12.5,12.5,12.5,6.53,0,12.81-5.72,12.5-12.5-1.01-21.97-2.21-44.53-10.41-65.19-2.29-5.78-7.13-9.94-13.71-8.95-5.9.89-11.08,5.95-10.84,12.28.72,18.91,1.43,37.82,2.15,56.73l24.55-3.32-1.98-7.54c-4.08-15.55-28.21-8.95-24.11,6.65h0l-.03.02Z"/>
    <path class="st1" d="M216.4,237.62c1.04,4.28,1.48,8.33,1.49,12.73l24.55-3.32c-.29-1.35.23-2.63.97-4.43h-24.11c1.44,7.8,1.78,15.66,1.45,23.58-.28,6.75,5.95,12.5,12.5,12.5,7.35,0,11.78-5.76,12.5-12.5.76-7.08.7-14.08-.16-21.16-.82-6.7-5.16-12.5-12.5-12.5-6.77,0-12.51,5.72-12.5,12.5s.03,13.7.04,20.54h25c-.96-7.73-1.62-15.48-1.99-23.27-.32-6.75-5.51-12.5-12.5-12.5-6.52,0-12.82,5.72-12.5,12.5.37,7.78,1.03,15.53,1.99,23.27.83,6.7,5.15,12.5,12.5,12.5,6.77,0,12.51-5.72,12.5-12.5s-.03-13.7-.04-20.54h-25c.86,7.07.92,14.07.16,21.16h25c.43-10.17-.49-20.22-2.34-30.22-.98-5.33-6.91-9.18-12.05-9.18-5.94,0-9.94,4.01-12.05,9.18-2.34,5.72-2.26,11.77-.97,17.72,3.03,13.94,24.57,10.59,24.55-3.32,0-6.52-.84-13.04-2.38-19.38-3.8-15.62-27.92-9.01-24.11,6.65h0Z"/>
    <path class="st1" d="M229.94,381.86c-1.71-2.42.68,2.35-.98,3.78l-5.52,3.21.91-.33h-6.65l1.02.26-5.52-3.21c-2.38-2.59-1.54-3.43-1.52-.46.04,5.43-.13,1.49.06,1.54l1.85-1.88c1.36-.61,2.74-.38,4.13.71,6.92,1.99,2.3,1.41,3.22.41.24-.26-1.74,3.41-1.7,3.36-4.05,2.19-7.27,2.17-9.66-.05-.19-.14-.32-.32-.38-.56.55-1.02-.09.83.12.84l2.41-3.01c8.74,1.89,12.29,5.46,10.65,10.74l-4.48,4.48-11.15-2.63c-.35-.94-.4-.99-.14-.15-.19.18.14-.67.05.89l1.71-6.31-.5,1.06,4.48-4.48-1.22.76,6.31-1.71c-3.22.4,1.2,1.32,2.37,1.75.91.34.26,1.33-.08-.15.27,1.2.15,2.66.5.83-.35,1.8-1.05,2.68-1.84,4.07-.45.79-2.67.49-.25.37-.55.03-2.86-.29-1.55.16,1.43.49-.76-.42-1.01-.88-1.73-3.21-3.06-9.6,5.94-9.31l6.31,1.71.67.62,3.66,8.84-.14-1.07-1.71,6.31.5-.8-4.48,4.48.88-.41-6.31,1.71c-1.22-.27-2.35-.77-3.38-1.51-1.9-2.04-1.68-4.16.66-6.37.29-3.51,2.1-5.2,5.44-5.07,2.65.29,4.81,1.47,6.48,3.54-.65,5.05-1.3,10.1-1.95,15.15l-8.55,1.46-2.53-19.63c1.19-1.24,5.25-.52,6.17.64l3.21,5.52-.32-1.17v6.65l.24-.94-3.21,5.52-.99.79-6.31,1.71h.9c-2.1-.57-4.21-1.14-6.31-1.71l.71.54c-1.49-5.7-2.99-11.4-4.48-17.1.3-.42,2.18-1.66,2.26-1.98-.11.45-1.64.37-1.51.36-.87.09-1.89-.07-2.74.12-.77-.05-.87-.02-.31.1,1.71.41,3.12,1.41,4.25,3.01l1.71,6.31-.75,3.34-4.48,4.48-1.34.51-9.63-1.26.88.38-2.53-19.63.64-.59,6.31-1.71,2.94,1.04v21.59c2.1-1.3-.47.49-1.88-.77l2.53-19.63c-2.9,1.98.74-.26,2.08.49l5.74,14.12.49-1.21-3.21,5.52-2.28,1.25c-5.27-4.02-10.55-8.04-15.82-12.05.31,3.39.06.22.26-.04l4.48-4.48,9.46,1.61,3.21,5.52-.2-.87v6.65l-1.82,3.29-5.52,3.21-1.71.15-6.31-1.71.71.47-5.74-7.47.16,1.09v-6.65l.29-1.02,4.48-4.48,1.02-.3h6.65l-1.09-.17c1,7.62,1.99,15.23,2.99,22.85,2.04-1.46.34-.11-.73-.7-1.49-5.7-2.99-11.4-4.48-17.1l6.27-4.02,6.31,1.71-.99-.43v21.59c-1.15.12-2.3.21-3.45.29l-9.18-12.05c-.16-6.82,8.36-9.58,13.05-5.15v17.68c-.79.77-4.78.84-1.64,1.24l-6.31-23.29c-.09.12-.2.18-.34.16l3.32,24.55c2.79-.99,5.7-1.95,8.65-2.26l-3.32-24.55-6.54,2.23c-5.86,1.99-9.91,7.37-8.95,13.71s5.91,10.07,12.28,10.84c4.22.51,8.44,0,12.54-1.09l-9.63-22.85c-.4.29-2.54,1.67-2.2,1.48.64-.36-2.33.43-.7.25-1.75.2-1.63.24-3.23-.66-7.14-4.03-16.03-.32-18.36,7.47-.67,2.22-.94,4.4-.95,6.72l18.81-10.79c4.97,2.72,2.15,5.67,2.86,3.12.46-1.68-.02-4.09-.02-5.88,0-3.92.02-7.83.06-11.75.08-7.83.25-15.67.5-23.5.51-15.66,1.37-31.31,2.54-46.94.51-6.74-6.11-12.5-12.5-12.5-7.19,0-11.99,5.74-12.5,12.5-1.37,18.23-2.31,36.49-2.77,54.77-.23,9.14-.34,18.28-.34,27.42s.24,19.26,9.54,24.35c8.28,4.52,18.77-1.12,18.81-10.79l.06-.08c-6.12,2.49-12.24,4.98-18.36,7.47,9.66,5.46,22.2,5.59,31.37-1.07,5.03-3.65,7.78-9.54,5.11-15.61-2.49-5.67-8.59-8.87-14.75-7.24-2.11.56-3.69.46-5.9.19l3.32,24.55,6.54-2.23c5.86-1.99,9.91-7.37,8.95-13.71-.84-5.6-6.01-11.49-12.28-10.84-5.26.55-10.3,1.38-15.3,3.15-5.84,2.07-9.92,7.31-8.95,13.71.87,5.8,5.97,11.21,12.28,10.84,4.78-.28,8.71-1.32,12.96-3.58,4.85-2.58,7.17-8.94,5.74-14.12-1.58-5.76-6.52-8.46-12.05-9.18-5.96-.77-11.86,1.97-16.04,6.08-4.71,4.63-4.89,13.06,0,17.68,10.79,10.18,29.98,2.93,29.63-12.53-.13-5.54-3.8-10.54-9.18-12.05s-11.12-.89-15.81,2.23c-6.96,4.62-9.25,17.57,0,21.59,8.6,3.74,17.49,2.13,22.62-6.22,3.47-5.65,1.34-13.89-4.48-17.1-7.63-4.21-17.22-4.53-24.5.7-4.13,2.97-6.76,7.16-5.97,12.45.67,4.42,4.09,9.65,8.95,10.39,5.69.86,10.99.22,15.22-4.01,3.91-3.91,5.58-9.87,4.02-15.22-3.55-12.16-20.13-12.29-26.11-2.18s1.9,22.22,13.19,22.44c10.64.21,17.9-9.93,17-19.93-.75-8.25-7.37-14.01-15.82-12.05-6.52,1.5-10.05,5.97-12.45,11.91-2.01,4.95,1.32,11.66,5.74,14.12,7.23,4.01,16.15,4.29,23.15-.49,6.27-4.28,8.91-13.91,2.53-19.63-7.93-7.12-19.12-8.88-28.42-3.14-7.99,4.94-8.19,16.69,0,21.59,6.63,3.96,15.03,2.93,20.41-2.66,5.01-5.19,5.13-16.33-2.53-19.63s-15.71-2.01-20.23,5.72-1.48,17.24,5.96,21.35c11.36,6.27,27.65,2.04,34.91-8.24,4.21-5.96.52-13.33-4.48-17.1s-13.24-2.51-17.64,1.84c-5.28,5.24-5.86,13.27-1.56,19.27,7.19,10.03,22.13,8.99,30.16.63,6.03-6.28,3.96-14.86-2.53-19.63s-16.12-3.15-21.74,2.45c-4.32,4.29-4.2,9.98-1.95,15.15,3.73,8.59,15.59,10.89,23.31,6.76,8.81-4.72,11.71-15.82,6.86-24.51s-15.63-13.49-24.52-8.54c-12.26,6.83-7.04,24.39,5.7,26.48,11.02,1.81,20.32-7.83,20.03-18.56-.25-9.32-7.31-17.45-16.09-19.99-18.27-5.28-34.6,12.69-26.13,30.12,3.47,7.14,10.93,12.33,19.03,11.9,12.31-.65,17.38-12.43,13.64-23.11-3.31-9.47-12.64-16.65-22.8-12.18-9.04,3.98-12.09,15.5-7.13,23.85,5.75,9.69,19.9,9.97,27.57,2.56s7.89-18.85,3.63-27.65-14.21-14.04-23.72-10.23c-10.1,4.04-14.07,15.86-10.75,25.8s12.36,18.53,23.9,15.37c10.75-2.94,16.33-13.81,15.6-24.39-.37-5.42-1.08-11.4-4.99-15.53-4.59-4.85-11.94-6.14-17.82-2.7-9.49,5.55-11.58,19.8-5.46,28.47,3.89,5.51,10.92,8.1,17.1,4.48,5.45-3.19,8.4-11.56,4.48-17.1h0l-.05-.06Z"/>
    <path class="st1" d="M232.52,379.45c.79-30.17,1.59-60.33,2.38-90.5h-25c.72,29.94,1.65,60.25-2.85,89.96h24.11c-4.97-20.44-1.13-41.83-3.85-62.57-.88-6.69-5.12-12.5-12.5-12.5-6.67,0-12.64,5.72-12.5,12.5.3,14.6-.95,29-4.01,43.29h24.11c-1.39-8.88-1.49-17.95-.89-26.9h-25c.23,8.7-.07,17.35-.91,26.01-.66,6.73,6.22,12.5,12.5,12.5,7.44,0,11.68-5.77,12.5-12.5,2.24-18.27,6.78-36.26,12.86-53.61h-24.11c2.03,10.45,2.3,21.04,1.36,31.63h25c1.28-14.89,2.56-29.78,3.83-44.68h-25c.49,18.91-.45,37.79-2.81,56.56h25c1.76-17.76,2.78-35.58,3.04-53.43.24-16.09-24.76-16.1-25,0-.22,14.53-.44,29.05-.66,43.58-.1,6.75,5.82,12.5,12.5,12.5,7.19,0,11.98-5.74,12.5-12.5,1.02-13.26,1.62-26.55,1.81-39.85h-25l.39,29.31c.09,6.75,5.68,12.5,12.5,12.5,7.22,0,11.94-5.74,12.5-12.5.93-11.25,1.85-22.49,2.78-33.74h-25c.39,8.31.33,16.6-.17,24.91-.41,6.75,6.04,12.5,12.5,12.5,7.16,0,12.03-5.74,12.5-12.5.63-9,.92-18.01.88-27.03-.07-16.1-24.7-16.09-25,0-.33,17.67-.67,35.35-1,53.02-.13,6.75,5.84,12.5,12.5,12.5,7.43,0,11.68-5.77,12.5-12.5,1.07-8.81,1.65-17.63,1.74-26.5.07-6.76-5.8-12.5-12.5-12.5-7.23,0-11.93,5.74-12.5,12.5-1.05,12.51-2.1,25.03-3.15,37.54h25v-10.62c0-6.75-5.74-12.5-12.49-12.5-7.17,0-12.02,5.74-12.5,12.5-.8,11.21-1.29,22.42-1.48,33.66-.27,16.1,24.61,16.08,25,0l.14-5.65h-25l-.11,12.45,24.55-3.32c-.5-1.5-.54-1.72-.13-.67h-25c0,2.12.02,4.23.03,6.35.08,16.09,24.87,16.11,25,0,.03-3.77-.47-7.53-1.29-11.2-2.63-11.64-21.86-12.2-24.11,0-.6,3.28-1.04,6.52-.92,9.85h25c-.38-5.59-.75-11.18-1.13-16.77-.45-6.74-5.42-12.5-12.5-12.5s-12.27,5.73-12.5,12.5c-.12,3.63-.25,7.26-.37,10.89-.23,6.75,5.91,12.5,12.5,12.5,6.97,0,12.27-5.73,12.5-12.5.12-3.63.25-7.26.37-10.89h-25c.38,5.59.75,11.18,1.13,16.77.45,6.74,5.42,12.5,12.5,12.5,6.58,0,12.74-5.72,12.5-12.5-.03-.86-.09-2.54.03-3.21h-24.11c.36,1.61.42,2.62.4,4.56h25c0-2.12-.02-4.23-.03-6.35-.08-16.09-24.88-16.11-25,0-.02,2.46.31,4.96,1.02,7.31,4.04,13.4,24.42,11,24.55-3.32l.11-12.45c.15-16.11-24.61-16.08-25,0l-.14,5.65h25c.19-11.23.68-22.45,1.48-33.66h-25v10.62c0,6.75,5.74,12.5,12.49,12.5,7.23,0,11.93-5.74,12.5-12.5,1.05-12.51,2.1-25.03,3.15-37.54h-25c-.09,8.87-.67,17.69-1.74,26.5h25c.33-17.67.67-35.35,1-53.02h-25c.04,9.02-.25,18.03-.88,27.03h25c.51-8.3.56-16.6.17-24.91-.32-6.75-5.52-12.5-12.5-12.5s-11.94,5.74-12.5,12.5c-.93,11.25-1.85,22.49-2.78,33.74h25l-.39-29.31c-.21-16.09-24.77-16.11-25,0-.19,13.3-.79,26.58-1.81,39.85h25c.22-14.53.44-29.05.66-43.58h-25c-.27,17.85-1.28,35.67-3.04,53.43-.67,6.73,6.22,12.5,12.5,12.5,7.46,0,11.65-5.77,12.5-12.5,2.37-18.77,3.31-37.65,2.81-56.56-.18-6.75-5.62-12.5-12.5-12.5-7.24,0-11.92,5.75-12.5,12.5-1.28,14.89-2.56,29.78-3.83,44.68-.58,6.74,6.16,12.5,12.5,12.5,7.26,0,11.9-5.75,12.5-12.5,1.14-12.85.2-25.62-2.25-38.28-1.03-5.33-6.88-9.18-12.05-9.18-5.75,0-10.22,3.95-12.05,9.18-6.87,19.58-11.23,39.68-13.75,60.26h25c.84-8.66,1.15-17.32.91-26.01-.44-16.2-23.94-15.97-25,0-.75,11.28.04,22.38,1.79,33.54,1.92,12.28,21.62,11.57,24.11,0,3.52-16.4,5.25-33.16,4.91-49.93h-25c3.02,23.05-.8,46.4,4.74,69.21,1.29,5.31,6.69,9.18,12.05,9.18,5.03,0,11.25-3.84,12.05-9.18,4.85-32.06,4.51-64.28,3.74-96.6-.38-16.09-24.58-16.1-25,0-.79,30.17-1.59,60.33-2.38,90.5-.42,16.09,24.58,16.08,25,0h-.01Z"/>
    <path class="st0" d="M223.13,45.28c.31.18.29.14.39.44.16.45.16.88.14,1.4-.05,1.02-.35,2.17-.79,3.11-.2.43-.47.98-.89,1.25.08-.05-.72.35-.43.17-.2.12-.25-.24-.19,0,.04.16.22.37.21.56-.03.58-.81.64-1.26.38l-.9-.9c.42.84.87,1.73,1,2.67.04.28.02.55,0,.83-.06.57-.24.05.1.04-.5.02.21.02-.27.1.66-.11-.77-.05-.06.02-.32-.03-.03.18-.2-.07.29.15.47.39.55.74.02.33.03.34.04.02l-4.66,1.26c.32.6.53,1.17.77,1.79.21.57-.34.21.5.36s.5.64.4-.27c-.05-.47,0-1.04.07-1.52.35-2.33,1.68-4.54,3.62-5.88h-2.52c.19.14.23.25.36.62.04.12.07.24.09.37-.02-.24-.02-.21,0,.1,0,.12-.09,1.01-.02.63-.13.68-.13.74-.54,1.3.23-.31-.2.2-.27.26.37-.32-.64.3-.18.13-.72.27-1.34-.07-1.81-.66-.4-.51-.57-.87-.65-1.5.05.43.11-.79.02-.34.06-.31.08-.31.33-.69l-4.57-.6c.13.92.1,2.19-.5,2.96-.49.62-.94.5-1.44.48.11,0,.32.2.2.32.07-.07,0-.27.04-.41-.1.26.1-.21.16-.28.11-.14,0-.05.24-.23-.06.05-.27.24-.03.07s.05.08-.07,0c-.26-.17.31.23.13.03.41.45.65.84.47,1.28-.14.34-.74.6-1.24.62-1.79.08-2.15-2.13-1.53-3.68l-3.67,1.49c.92.52,1.5,1.36,1.67,2.42.06.36.05.88-.03,1.22-.05.21-.17.41-.2.6-.06.05-.08.11-.08.18.14.95.74,1.69,1.79,2.24l-.9.9.19-.14h-2.52c1.65.84,2.77,2.14,3.25,3.93l1.15-2.82c-.15.09-2.54,1.06-2.43.64-.21.79.55.5.23.24.04.03,0,.73.05.08-.02.23.18-.06-.06.07-.29.15-.66.44-1.01.33,2.49.78,4.05-2.42,2.43-4.18-1.11-1.21-.69-3.03.6-4.05l-4.27-1.77c.18,1.66-.23,3.06-1.45,4.23l3.93.51c-.55-.87-.38-1.64.47-2.34l-3.93-3.03c-1.26,2.73-2.53,5.47-3.79,8.2l4.57.6c-.63-3.64.52-7.27,2.74-10.16.75-.97.25-2.56-.64-3.23-1.03-.77-2.33-.66-3.28.2-2.03,1.83-2.69,4.41-2.29,7.04l4.82-1.33c-.19-1.18,0-2.49.49-3.58l-4.57-1.93c-.91,2.45-1.82,4.9-2.73,7.35h4.82c-.2-1.3.67-2.31,1.64-2.99,1.52-1.07,3.01-2.17,4.39-3.42,2.78-2.54,5.15-5.56,6.99-8.85l-4.66-1.26c-.1,3.84-1.69,7.41-4.42,10.09l4.18,2.43c1.14-3.91,2.61-7.69,4.46-11.32l-4.57-1.93c-.92,5.16-2.39,10.24-4.49,15.06l4.57,1.93c1.7-5.5,3.82-10.85,6.38-16.01l-4.66-1.26c-.23,2.7-1.67,5.04-3.73,6.74l3.93,3.03c2.24-5.23,4.85-10.28,7.82-15.13,1.69-2.75-2.64-5.26-4.32-2.52-2.97,4.85-5.59,9.9-7.82,15.13-1.11,2.6,1.65,4.91,3.93,3.03,3.11-2.57,4.85-6.3,5.19-10.28.21-2.45-3.58-3.43-4.66-1.26-2.75,5.54-5.06,11.29-6.88,17.2-.82,2.65,3.42,4.56,4.57,1.93,2.28-5.23,3.99-10.63,4.99-16.25.22-1.22-.23-2.46-1.45-2.95-1.09-.44-2.55-.11-3.12,1.02-2.04,4.01-3.71,8.2-4.96,12.51-.7,2.43,2.42,4.16,4.18,2.43,3.67-3.61,5.75-8.49,5.89-13.63.06-2.48-3.46-3.41-4.66-1.26-1.98,3.53-4.59,6.65-7.77,9.17-1.6,1.27-3.43,2.16-4.59,3.91s-1.48,3.91-1.15,6.03c.16,1.07,1.41,1.84,2.41,1.84,1.16,0,2.02-.79,2.41-1.84.91-2.45,1.82-4.9,2.73-7.35.98-2.63-3.39-4.51-4.57-1.93-1.11,2.43-1.42,4.8-.99,7.43.22,1.33,1.88,2.08,3.08,1.75,1.43-.39,1.95-1.74,1.75-3.08-.13-.87.4-1.64,1-2.18l-3.93-3.03c-3.08,3.99-4.1,9.1-3.25,14.01.36,2.05,3.69,2.5,4.57.6,1.26-2.73,2.53-5.47,3.79-8.2s-1.69-4.85-3.93-3.03c-2.44,1.99-2.92,5.78-1.25,8.4.88,1.37,2.73,1.65,3.93.51,2.07-1.99,3.23-4.89,2.92-7.77-.25-2.26-2.51-3.16-4.27-1.77-3.42,2.7-3.44,8.04-.6,11.12l2.43-4.18c-3.55-1.12-6.01,2.94-5.02,6.02,1.32,4.09,6.52,3.52,9.43,1.76.96-.58,1.44-1.74,1.15-2.82-.79-2.97-2.79-5.53-5.54-6.92-.73-.37-1.81-.55-2.52,0-1.02.78-1.61,1.63-1.55,2.95.06,1.2.78,2.35,1.85,2.92,2.33,1.26,4.78-.53,5.74-2.64,1.75-3.81.22-8.58-3.44-10.64-1.54-.87-3.07,0-3.67,1.49-1.54,3.8.43,8.82,4.61,9.81s8.56-2.06,7.94-6.53c-.58-4.16-5.43-6.89-8.88-3.89-3.15,2.74-2.44,8.15,1.89,9.15,2.37.55,4.9-.52,6.33-2.44,1.59-2.13,1.69-4.73,1.33-7.26-.33-2.3-3.52-2.19-4.57-.6-3.25,4.93,1.99,12.36,7.75,10.53,2.39-.76,4.1-3,4.52-5.43.49-2.81-.43-5.43-2.78-7.11-.67-.48-1.85-.47-2.52,0-2.22,1.55-3.97,3.56-5.03,6.06-.97,2.28-1.63,5.2-.8,7.62,1.02,2.98,4.45,4.28,6.97,2.13,2.71-2.32,1.79-5.76.34-8.49-1.23-2.31-4.53-1.08-4.66,1.26-.21,3.82,4.41,5.15,7.27,3.62,1.84-.98,2.69-3.11,2.61-5.12-.04-1.09-.32-2.16-.72-3.17-.45-1.14-.89-2.51-2-3.16-4.08-2.37-8.07,3.69-4.97,6.9,1.35,1.39,3.45,1.8,5.29,1.31,1.99-.54,3.47-2.15,4.3-3.98,1.64-3.62,2.38-9.13-1.69-11.46-2.8-1.6-5.32,2.72-2.52,4.32h-.02Z"/>
    <path class="st0" d="M209.22,57.59c.86-.72,1.9-1.02,2.99-1.17l-3.08-1.75c.1.29.03.27.22.2h1.33c.33.11.4.53.54.6-.14-.07.03-.3.09-.34.55-.38,1.4-.49,2.06-.56l-2.41-1.84c.18.51.3.93.19,1.47-.04.21-.29.59-.3.65,0-.03.33.03.33.02.23.25-.14-.28-.04-.04.08.19.03-.24-.06-.02-.09.23-.65,1.1-.14.66h-3.54c.64.56,1.37,1.14,1.8,1.89s.11.36.07.32c0,0,.02-.02.04,0,.28-.1.58-.08.89.08l1.15,2.82c-.08.35-.73.73-1,.9-.29.02-.34.02-.15.02.15,0,.14,0,0,0-.58-.23-1.03-.65-.77-1.51.08-.25.29-.42.45-.59.15-.16.16.02-.09,0,.35,0,.67.27.43-.02l.39,3.03c-.12.19.29-.13.24-.12.41-.05.34-.03.55.18v-3.54c.09-.09.33-.04.42-.12.09-.09-.05-.07-.02-.05.1.05-.1-.2-.1-.08.02.37-.03-.7-.04-.46.04-1.27.91-2.64,1.49-3.72.99-1.82,2.47-4.34,4.75-4.41,2.52-.08,3.35-3.31,1.26-4.66-1.13-.73-1.5-2.09-1.14-3.33l-3.67,1.49c.64.4,1.19.89,1.63,1.52,1.69,2.45,4.95.84,4.57-1.93-.33-2.45-.67-4.9-1-7.35l-4.18,2.43c1.31,1.3,2.29,2.73,3.07,4.4l4.32-2.52c-.48-.88-.96-1.76-1.44-2.65-1.36-2.51-5.31-.79-4.57,1.93l1.28,4.72c.84,3.1,5.67,1.79,4.82-1.33-.58-2.13-2.28-4.45-4.82-3.7s-3.34,3.57-1.64,5.47,4.96-.09,4.18-2.43c-.4-1.21-.8-2.42-1.2-3.63-.71-2.14-3.32-2.36-4.57-.6-1.5,2.11-2.99,4.22-4.49,6.32l4.66,1.26c-.24-3.53.64-6.83,2.6-9.78l-4.57-1.93c-.33,1.35-.87,2.5-1.67,3.64l4.66,1.26c.1-1,.58-1.83,1.18-2.62l-4.32-2.52c-1.64,2.71-3.29,5.42-4.93,8.12l4.57,1.93,1.18-6.28c.21-1.1-.14-2.23-1.15-2.82-.89-.52-2.34-.46-3.03.39l-1.8,2.21c-.79.97-1.02,2.24-.2,3.28.72.9,2.2,1.38,3.23.64,4.72-3.38,7.57-9.08,6.9-14.94-.16-1.34-1.04-2.5-2.5-2.5-1.23,0-2.66,1.15-2.5,2.5.47,4.02-1.06,8.21-4.42,10.62l3.03,3.93,1.8-2.21-4.18-2.43-1.18,6.28c-.51,2.7,3.03,4.46,4.57,1.93,1.64-2.71,3.29-5.42,4.93-8.12.7-1.15.25-2.75-.9-3.42-1.28-.75-2.6-.18-3.42.9-1.15,1.52-1.68,3.27-1.86,5.15-.11,1.08.85,2.14,1.84,2.41,1.13.31,2.18-.23,2.82-1.15,1.02-1.46,1.75-3.11,2.17-4.84.69-2.8-3.01-4.28-4.57-1.93-2.4,3.61-3.57,7.98-3.28,12.3.17,2.55,3.21,3.3,4.66,1.26s2.99-4.22,4.49-6.32l-4.57-.6c.4,1.21.8,2.42,1.2,3.63l4.18-2.43-.16-.18.64,1.1-.06-.21v1.33c-.24.28-.48.55-.74.8h-1.33c-.53-.45-.68-.6-.45-.43.08.22.14.45.2.68l4.82-1.33-1.28-4.72-4.57,1.93c.48.88.96,1.76,1.44,2.65.64,1.19,2.28,1.56,3.42.9,1.25-.73,1.47-2.19.9-3.42-.95-2.02-2.27-3.84-3.85-5.41-.79-.78-2.07-.95-3.03-.39-1.04.61-1.3,1.71-1.15,2.82.33,2.45.67,4.9,1,7.35l4.57-1.93c-.93-1.36-2.02-2.44-3.42-3.31s-3.23,0-3.67,1.49c-1.01,3.44.46,7.05,3.44,8.98l1.26-4.66c-5.23.16-8.34,4.92-10.22,9.26-1.12,2.58-1.66,5.7.53,7.91,1.79,1.81,4.92,2.17,6.73.22.93-1,.97-2.53,0-3.54-2.49-2.58-6.73-1.97-8.64.95-.65.99-.3,2.2.39,3.03,2.57,3.06,8.58.79,7.6-3.4-.86-3.68-6.81-4.17-7.75-.27-.24.99.14,2.36,1.15,2.82,2.67,1.23,5.59-.19,6.43-3.03s-1.16-5.34-3.17-7.09c-1.07-.94-2.45-.94-3.54,0-3.2,2.77-.11,7.93,3.64,7.92,4.18-.02,5.93-5.05,4.74-8.45-.33-.95-1.29-1.96-2.41-1.84-2.11.24-4.33.65-5.83,2.3-1.37,1.51-1.73,3.84-.8,5.67,1.05,2.07,3.4,2.84,5.35,1.47,1.75-1.23,2.6-3.61,1.86-5.66-.51-1.4-1.64-1.95-3.08-1.75-1.98.28-3.68,1.19-5.2,2.45-1.04.86-.89,2.64,0,3.54,1.03,1.03,2.49.87,3.54,0h-.01Z"/>
    <path class="st0" d="M218.63,50.7c.54.95.68,1.91.42,2.95l4.18-1.1c-1.48-1.54-1.83-3.57-1.23-5.51l-4.18,1.1c.57.68.55,1.67.04,2.51h4.32c-1.01-1.94-1.12-4.38-.18-6.38h-4.32c1.56,3.68,1.92,7.92,1.13,11.83l3.08-1.75c.32.13-.32-.22-.33-.23.25.19-.11-.13-.18-.21-.14-.16.03.1-.17-.22,0,0-.34-.68-.21-.35-.08-.2-.14-.42-.18-.63-.05-.24-.02.18-.02-.24,0-.06.1-.75,0-.37.06-.26.15-.5.25-.74l-4.57.6c.59,1.17,1.2,2.57,1.03,3.65.06-.15.03-.1-.1.14.14-.17.11-.14-.09.08-.35.33.14-.08-.3.2.23-.08.2-.08-.08,0l.2-.02q-.3,0,0,.03c.12.03.22.1.3.19l-.51,3.93c.55-.36-.33.03-.62,0,.48.04.03.1-.08-.08.32.6-.05-.16-.04-.13,0-.44-.06-.72.23-1.03.2-.21.4-.26.68-.28-.53.04.41.13-.16,0,.35.07.05-.03.13.09.1.15.39.77.29.31l-1.75,3.08c-.42.13-1.03-.08-1.33-.4-.04-.04-.45-.75-.22-.28-.02-.3-.03-.36-.02-.17,0,.19.02.14.05-.16-.07.23-.07.26,0,.08.04-.12.11-.22.21-.3,0,0,.24-.21.25-.13,0,.07-.66-.06-.62-.05-.57-.11-1.09-.38-1.6-.63l-.6,4.57c-.36.05.04.07.11.11.19.11.18.16.32.44l.9-3.42c-.39.26-.24.25.45,0l.64.18c-.24-.15-.27-.16-.09-.04l-.19-.19c-.1-.12-.36-.61-.43-.86-.43-1.45-.58-3.06-.71-4.56-.28-3.17-.25-6.4.2-9.55.15-1.02,0-1.97-.9-2.63-.79-.59-1.9-.72-2.78-.2s-1.82.68-2.74.24c-1.48-.72-3.16-.13-3.67,1.49-.23.72-.46,1.44-.69,2.16-.41,1.29.48,2.73,1.75,3.08,1.35.37,2.67-.45,3.08-1.75.23-.72.46-1.44.69-2.16l-3.67,1.49c2.51,1.23,5.36,1.23,7.79-.24l-3.67-2.82c-.67,4.66-.69,9.27,0,13.94.3,2.07.67,4.04,2.06,5.69,1.3,1.54,3.67,2.39,5.42,1.04,1.13-.87,1.56-2.08.9-3.42-1.15-2.32-3.64-3.21-6.08-2.85-2.12.31-2.42,3.66-.6,4.57,1.57.79,3.26,1.5,5.05,1.33s3.37-1.15,3.93-2.9c.92-2.84-1.21-6.51-4.51-5.53-1.36.41-2.01,1.72-1.75,3.08.72,3.66,6.2,4.41,8.05,1.27,2.18-3.71-2.66-8.1-6.19-5.79-1.24.81-1.8,2.83-.51,3.93,2.37,2,5.63,1.37,7.48-1.03,2.2-2.86.87-6.44-.58-9.3-.44-.87-1.57-1.33-2.49-1.19-1.06.16-1.68.83-2.08,1.79-1.51,3.7.83,7.75,4.33,9.14,1.2.48,2.83-.53,3.08-1.75,1.09-5.35.5-10.67-1.63-15.68-.71-1.68-3.57-1.59-4.32,0-1.73,3.71-1.71,7.78.18,11.42.89,1.71,3.39,1.54,4.32,0,1.67-2.78,1.22-6.14-.83-8.57-1.27-1.51-3.66-.56-4.18,1.1-1.13,3.64-.11,7.64,2.52,10.37,1.29,1.35,3.72.7,4.18-1.1.59-2.34.28-4.72-.92-6.81-1.6-2.79-5.92-.27-4.32,2.52h0Z"/>
  </g>
  <g id="drawings">
    <path d="M198.38,64.18c6.59,8.55,19.85,8.88,27.03.85,3.5-3.91,5.46-9.14,5.39-14.38-.08-6.37-3.17-12.44-5.94-18.01-3.2-6.43-6.93-12.59-11.12-18.42-1.6-2.22-5.3-.97-4.57,1.93,2.65,10.51-3.97,20.74-9.48,29.13-1.77,2.7,2.56,5.21,4.32,2.52,6.34-9.65,13-21,9.98-32.99l-4.57,1.93c3.3,4.59,6.31,9.38,9,14.35s5.36,9.94,6.75,15.28c1.12,4.32.67,8.83-1.59,12.71-2.06,3.55-5.47,6.16-9.6,6.72s-8.75-.83-11.3-4.15c-.82-1.07-2.15-1.64-3.42-.9-1.05.61-1.73,2.34-.9,3.42h.02Z"/>
    <path d="M188.26,89.55c.44-.94,1.03-1.21,2.08-1.33,1.41-.16,2.74.08,4.09.44,4.13,1.1,8.15,2.56,12.26,3.73,7.33,2.09,15.29,3.26,22.65.6,3.87-1.4,7.1-3.66,9.61-6.92.83-1.07.16-2.8-.9-3.42-1.29-.76-2.59-.18-3.42.9-3.9,5.05-11.07,6.36-17.08,5.92-4.16-.3-8.24-1.48-12.21-2.7s-7.66-2.76-11.61-3.36c-3.59-.54-8.05-.1-9.8,3.61-.58,1.22-.34,2.7.9,3.42,1.09.64,2.84.33,3.42-.9h.01Z"/>
    <path d="M212.46,71.37c-.39,4.19-.08,8.42.84,12.52.29,1.28,1.83,2.15,3.08,1.75,1.34-.43,2.05-1.71,1.75-3.08-.21-.95-.39-1.91-.53-2.88-.09-.6.03.33-.03-.23-.03-.26-.06-.52-.09-.78-.05-.49-.09-.97-.12-1.46-.12-1.95-.08-3.9.11-5.85.12-1.31-1.24-2.56-2.5-2.5-1.46.07-2.37,1.1-2.5,2.5h-.01Z"/>
    <path d="M187.34,86.91c9.43-4.03,19.48-8.23,29.92-8.1,5.13.06,9.98,1.41,14.57,3.68,2.39,1.18,4.69,2.52,6.99,3.87,1.93,1.13,3.93,2.2,5.03,4.23,1.27,2.32,1.68,5.29,2.06,7.87.45,3.08.54,6.21.39,9.31s4.84,3.21,5,0c.28-5.77-.14-12.16-2.2-17.62-1.03-2.72-2.66-4.77-5.04-6.43-2.23-1.56-4.69-2.87-7.07-4.17-5.22-2.85-10.65-4.98-16.6-5.57s-11.46.29-16.95,1.74c-6.4,1.7-12.53,4.27-18.61,6.87-1.24.53-1.52,2.36-.9,3.42.75,1.28,2.17,1.43,3.42.9h0Z"/>
    <path d="M253.84,201.01c-1.69-5.81-2.08-11.99-1-17.96.54-2.97,1.38-5.93,2.6-8.7s2.81-5.4,4.23-8.08c2.85-5.35,5.22-11.42,3.13-17.48-.98-2.83-2.6-5.31-4.21-7.81s-3.03-5.08-4.03-7.88c-2.34-6.51-3.06-13.43-3.74-20.27-.13-1.34-1.05-2.5-2.5-2.5-1.25,0-2.63,1.15-2.5,2.5.62,6.29,1.25,12.66,3,18.76.86,3,2.01,5.96,3.5,8.7s3.34,5.11,4.76,7.82c1.22,2.33,1.82,4.82,1.42,7.45-.44,2.91-1.78,5.62-3.15,8.19-2.96,5.55-5.9,10.88-7.17,17.12-1.45,7.11-1.19,14.5.83,21.47.9,3.08,5.72,1.77,4.82-1.33h0Z"/>
    <path d="M248.57,205.67c3.4,18.32-2.69,36.73-4.44,54.89-.5,5.24-.66,10.5-.2,15.75.12,1.35,1.06,2.5,2.5,2.5,1.26,0,2.62-1.15,2.5-2.5-1.66-18.89,4.77-37.18,5.53-55.94.22-5.37-.1-10.74-1.08-16.02-.25-1.33-1.85-2.08-3.08-1.75-1.39.38-1.99,1.74-1.75,3.08h.02Z"/>
    <path d="M246.25,353.23c1.87-19.51,2.98-39.1,3.29-58.7.09-5.54.11-11.08.07-16.63-.02-3.22-5.02-3.22-5,0,.13,19.6-.52,39.21-1.95,58.76-.41,5.53-.88,11.05-1.41,16.57-.13,1.35,1.24,2.5,2.5,2.5,1.46,0,2.37-1.15,2.5-2.5h0Z"/>
    <path d="M184.54,89.53c2.59,8.94,1.71,18.26,0,27.28s-4.35,18.64-5.42,28.17c-.61,5.41-.6,10.82.23,16.21.21,1.34,1.88,2.07,3.08,1.75,1.43-.39,1.95-1.74,1.75-3.08-1.44-9.27.27-18.71,2.21-27.78s4.38-18.52,4.77-28.02c.22-5.33-.29-10.72-1.78-15.86-.9-3.08-5.72-1.77-4.82,1.33h-.01Z"/>
    <path d="M184.08,358.8c1.26-11.56.46-23.17-.75-34.69s-2.5-23.06-3.27-34.64c-.41-6.08.06-12.29,2.51-17.94.53-1.24.37-2.68-.9-3.42-1.06-.62-2.88-.35-3.42.9-2.34,5.43-3.38,11.17-3.32,17.07.03,2.82.43,5.59.6,8.4.18,2.98.36,5.95.62,8.92,1.04,11.8,2.8,23.53,3.39,35.37.33,6.68.27,13.37-.46,20.02-.15,1.34,1.25,2.5,2.5,2.5,1.47,0,2.35-1.15,2.5-2.5h0Z"/>
    <path d="M179.59,162.57c.79,2.32,1.37,4.88,1.57,7.01.24,2.52.19,5.06-.14,7.57-.17,1.3,1.27,2.56,2.5,2.5,1.5-.07,2.32-1.1,2.5-2.5.69-5.33.12-10.83-1.61-15.92-.42-1.24-1.74-2.18-3.08-1.75-1.23.4-2.2,1.75-1.75,3.08h0Z"/>
    <path d="M181.8,178.08c-.11,8.13-1.87,16.26-5.29,23.65-1.7,3.67-4.1,7.12-5.13,11.07-1.18,4.53.28,8.56,2.05,12.69,2.06,4.8,4.12,9.6,6.17,14.4.53,1.24,2.36,1.52,3.42.9,1.28-.75,1.43-2.17.9-3.42-1.76-4.11-3.53-8.23-5.29-12.34-1.51-3.53-3.45-7.17-2.38-11.09,1-3.64,3.31-6.86,4.85-10.28,1.68-3.74,3.04-7.61,3.98-11.6,1.08-4.57,1.65-9.27,1.71-13.96.05-3.22-4.95-3.22-5,0h0v-.02Z"/>
    <path d="M181.19,270.53c4.29-9.1,6.63-18.96,6.8-29.03.05-3.22-4.95-3.22-5,0-.15,9.15-2.21,18.22-6.11,26.5-.58,1.22-.34,2.7.9,3.42,1.09.64,2.84.33,3.42-.9h0Z"/>
    <path d="M197.07,118.87c-2.63,19.52-5.28,39.82.65,59.03.95,3.07,5.77,1.76,4.82-1.33-5.65-18.31-3.16-37.75-.65-56.37.18-1.34-.32-2.68-1.75-3.08-1.16-.32-2.89.4-3.08,1.75h0Z"/>
    <path d="M199.97,193.48c-.89,3.49-.95,7.09-.23,10.62.26,1.28,1.85,2.14,3.08,1.75,1.36-.44,2.02-1.7,1.75-3.08-.04-.2-.08-.4-.11-.6-.03-.15-.14-.46-.1-.6l.04.32c0-.11-.03-.23-.04-.34-.02-.17-.04-.35-.05-.52-.06-.75-.09-1.5-.07-2.25,0-.35.03-.69.05-1.04.02-.2.03-.4.05-.6,0-.09.02-.17.03-.26.03-.28.03-.23-.02.15-.03-.14.06-.38.08-.51l.09-.51c.08-.4.17-.79.27-1.18.32-1.27-.41-2.77-1.75-3.08s-2.73.39-3.08,1.75h0v-.02Z"/>
    <path d="M204.5,244.81c1.96-13.14,2.21-26.45.58-39.64-.17-1.34-1.03-2.5-2.5-2.5-1.22,0-2.67,1.15-2.5,2.5,1.57,12.71,1.49,25.64-.4,38.32-.2,1.33.33,2.69,1.75,3.08,1.18.32,2.87-.4,3.08-1.75h-.01Z"/>
    <path d="M198.63,257.43c1.07,16.21-6.01,31.49-7.1,47.52-.31,4.54-.06,9.08.86,13.54.27,1.32,1.83,2.09,3.08,1.75,1.37-.38,2.02-1.75,1.75-3.08-3.21-15.55,3.53-30.99,5.72-46.2.65-4.49,1-8.99.7-13.52-.09-1.35-1.09-2.5-2.5-2.5-1.28,0-2.59,1.15-2.5,2.5h0Z"/>
    <path d="M193.91,318.34l2.37,13.57c.23,1.29,1.88,2.13,3.08,1.75,1.39-.45,1.99-1.69,1.75-3.08l-2.37-13.57c-.23-1.29-1.88-2.13-3.08-1.75-1.39.45-1.99,1.69-1.75,3.08h0Z"/>
    <path d="M197.28,333.94c-.07.49-.15.99-.16,1.49s.07.99.14,1.49c.11.79.38,1.49.7,2.23.63,1.45,1.73,2.63,3.02,3.53.51.35,1.35.41,1.93.25s1.21-.61,1.49-1.15c.31-.58.46-1.28.25-1.93s-.59-1.11-1.15-1.49c-.1-.07-.19-.13-.28-.2l.51.39c-.39-.31-.73-.65-1.04-1.04l.39.51c-.34-.44-.61-.92-.83-1.42l.25.6c-.21-.51-.35-1.04-.43-1.59l.09.66c-.06-.49-.06-.98,0-1.47l-.09.66c0-.06.02-.11.02-.17.1-.33.12-.66.04-1-.02-.33-.11-.64-.3-.93-.3-.52-.9-1.01-1.49-1.15-.64-.15-1.36-.11-1.93.25-.51.33-1.05.87-1.15,1.49h.02Z"/>
    <path d="M201.6,341.58c.28,3.38,3.06,5.45,6.36,5.51,3.63.06,6.33-2.41,7.39-5.76,1.18-3.74.25-8-.59-11.7-.98-4.27-2.48-8.38-4.31-12.36s-4.14-8.24-2.54-12.53c.47-1.27-.53-2.74-1.75-3.08-1.4-.38-2.6.48-3.08,1.75-1.71,4.58-.11,9.29,1.75,13.54s3.64,8.22,4.77,12.66c.52,2.03,1.01,4.12,1.19,6.21.15,1.63.2,3.43-.58,4.92-.38.71-.69.99-1.21,1.21.28-.12-.55.13-.66.15.4-.06-.38,0-.39,0-.34,0-.77-.04-1.16-.32-.25-.16-.27-.18-.06-.04-.2-.21-.22-.22-.05-.03-.14-.26-.15-.27-.05-.04-.07-.29-.08-.31-.04-.07-.11-1.35-1.07-2.5-2.5-2.5-1.27,0-2.61,1.15-2.5,2.5h0v-.02Z"/>
    <path d="M214.4,102.51c1.88,7.82,3.92,16.33,1.02,24.16-1.37,3.7-3.52,7.04-3.18,11.15.33,3.9,2.57,7.39,2.8,11.27.12,1.99-.36,3.91-.8,5.83-.5,2.16-.92,4.34-.98,6.57-.12,3.91.58,8.37,2.71,11.74s5.77,5.18,9.63,4.04c3.62-1.07,6.3-4.13,7.33-7.7,1.33-4.56.31-9.54-.55-14.09-.93-4.94-2.21-9.81-3.79-14.58-1.01-3.04-5.84-1.74-4.82,1.33,1.28,3.86,2.36,7.79,3.22,11.76.78,3.62,1.62,7.39,1.56,11.11-.05,2.87-1.01,6.07-3.92,7.24-2.5,1-4.28-1.01-5.15-3.19-1.32-3.31-1.56-7.19-.9-10.67.75-3.95,1.93-7.64,1.17-11.7-.63-3.35-2.57-6.53-2.54-9.98s2.31-6.5,3.33-9.65c2.75-8.47.7-17.59-1.32-25.98-.75-3.13-5.57-1.8-4.82,1.33h0Z"/>
    <path d="M219.29,201c-1.93,10.66.47,21.21,2.71,31.62,1.08,5.04,2.14,10.11,2.5,15.26.17,2.54.18,5.09-.04,7.63-.18,1.98-.31,4.66-1.67,6.23-.36.41-1.25.94-1.69.67-.68-.42-.65-1.97-.7-2.69-.25-3.32-.05-6.63.63-9.89.28-1.32-.39-2.7-1.75-3.08-1.24-.34-2.8.42-3.08,1.75-.7,3.37-1.04,6.82-.87,10.25.15,2.96.45,6.48,3.39,8.04,2.56,1.36,5.86.44,7.73-1.66,2.05-2.3,2.52-5.41,2.87-8.35,1.42-11.85-2.35-23.52-4.48-35.05-1.18-6.37-1.89-12.98-.72-19.4.24-1.33-.36-2.7-1.75-3.08-1.21-.33-2.83.41-3.08,1.75h0Z"/>
    <path d="M240.21,352.39l.44,6.16c.05.67.25,1.28.73,1.77.43.43,1.15.76,1.77.73s1.32-.24,1.77-.73.78-1.11.73-1.77l-.44-6.16c-.05-.67-.25-1.28-.73-1.77-.43-.43-1.15-.76-1.77-.73s-1.32.24-1.77.73-.78,1.11-.73,1.77h0Z"/>
    <path d="M240.81,357.9c-.52,16.06-.61,32.14-.27,48.21.07,3.21,5.07,3.22,5,0-.34-16.07-.24-32.14.27-48.21.1-3.22-4.9-3.21-5,0h0Z"/>
    <path d="M179.08,357.31c-1.03,9.92-1.52,19.89-1.45,29.86.02,3.22,5.02,3.22,5,0-.07-9.97.41-19.94,1.45-29.86.14-1.34-1.25-2.5-2.5-2.5-1.47,0-2.36,1.15-2.5,2.5h0Z"/>
    <path d="M183.57,414.72c.42-9.94.39-19.9-.09-29.84-.15-3.2-5.15-3.22-5,0,.47,9.94.5,19.9.09,29.84-.13,3.22,4.87,3.21,5,0h0Z"/>
    <path d="M179.28,416.55c1.66,4.04,5.49,5.74,9.57,6.53,5.2,1.01,10.58,1.74,15.88,1.55s10.48-1.39,15.62-2.45,10.01-2.32,14.74-4.35c4.21-1.81,8.37-5.05,8.49-10.02.08-3.22-4.92-3.22-5,0-.07,2.86-3.46,4.61-5.77,5.59-3.98,1.69-8.23,2.75-12.44,3.66s-8.79,1.98-13.22,2.4-9.15.06-13.66-.65c-2.06-.32-4.15-.62-6.14-1.28-1.19-.4-2.75-1.11-3.25-2.32s-1.66-2.13-3.08-1.75c-1.18.32-2.26,1.82-1.75,3.08h0Z"/>
  </g>
</svg>